<svg width="119" height="25" viewBox="0 0 119 25" fill="none" xmlns="http://www.w3.org/2000/svg">
<path d="M0.447268 24V20.838H4.83327V4.892H0.447268V1.73H12.4493V4.892H8.36927V20.838H12.4493V24H0.447268ZM18.9433 7.85L19.0113 8.836C20.8473 7.99733 22.2866 7.578 23.3293 7.578C25.1653 7.578 26.5139 8.122 27.3753 9.21C28.2593 10.2753 28.7013 11.9527 28.7013 14.242V24H25.1993V14.344C25.1993 13.256 25.0066 12.406 24.6213 11.794C24.2359 11.182 23.6353 10.876 22.8193 10.876C22.0033 10.876 20.7453 11.2727 19.0453 12.066V24H15.5433V7.85H18.9433ZM31.2853 10.978V7.85H34.0393V3.974L37.5413 3.634V7.85H43.8993V10.978H37.5413V17.778C37.5413 19.0247 37.6659 19.9087 37.9153 20.43C38.1646 20.9287 38.6746 21.178 39.4453 21.178C40.7826 21.178 42.3466 20.9627 44.1373 20.532L44.7153 23.558C42.7433 24.0793 40.9866 24.34 39.4453 24.34C37.2693 24.34 35.8186 23.8527 35.0933 22.878C34.3906 21.9033 34.0393 20.2033 34.0393 17.778V10.978H31.2853ZM46.5853 15.942C46.5853 13.1993 47.1973 11.1253 48.4213 9.72C49.6453 8.292 51.3453 7.578 53.5213 7.578C55.6973 7.578 57.3746 8.224 58.5533 9.516C59.7546 10.7853 60.3779 12.6553 60.4233 15.126L60.2873 17.642H50.3593C50.5633 20.09 51.7873 21.314 54.0313 21.314C55.5953 21.314 57.2499 21.0307 58.9953 20.464L59.7093 23.422C58.9839 23.6713 58.0433 23.8867 56.8873 24.068C55.7313 24.272 54.7793 24.374 54.0313 24.374C49.0673 24.374 46.5853 21.5633 46.5853 15.942ZM53.6573 10.74C52.5919 10.74 51.7873 11.0573 51.2433 11.692C50.7219 12.304 50.4273 13.3353 50.3593 14.786H56.6493C56.6493 12.0887 55.6519 10.74 53.6573 10.74ZM62.7693 24V20.872H67.8353V4.484L63.4493 4.518L63.4153 1.424L71.3373 1.39V20.872H76.1313V24H62.7693ZM78.4093 24V20.872H83.4753V4.484L79.0893 4.518L79.0553 1.424L86.9773 1.39V20.872H91.7713V24H78.4093ZM93.9133 24V20.872H98.9793V10.978H94.1853V7.85H102.481V20.872H107.275V24H93.9133ZM100.543 5.504C99.8633 5.504 99.3193 5.3 98.9113 4.892C98.5259 4.46133 98.3333 3.906 98.3333 3.226C98.3333 2.546 98.5373 2.002 98.9453 1.594C99.3533 1.186 99.8973 0.981998 100.577 0.981998C101.28 0.981998 101.813 1.186 102.175 1.594C102.561 1.97933 102.753 2.52333 102.753 3.226C102.753 3.92867 102.561 4.484 102.175 4.892C101.79 5.3 101.246 5.504 100.543 5.504ZM113.429 24V19.07H118.359V24H113.429Z" fill="#002855"/>
</svg>
