<svg width="145" height="40" viewBox="0 0 145 40" fill="none" xmlns="http://www.w3.org/2000/svg">
<path d="M5.70759 25.6832C4.91958 24.8952 4.91958 23.6175 5.70759 22.8295L22.8296 5.70755C23.6176 4.91954 24.8952 4.91954 25.6832 5.70755C26.4712 6.49557 26.4712 7.7732 25.6832 8.56121L8.56125 25.6832C7.77324 26.4712 6.49561 26.4712 5.70759 25.6832Z" fill="url(#paint0_linear_195_25519)"/>
<path d="M14.2686 34.2442C13.4806 33.4562 13.4806 32.1786 14.2686 31.3906L31.3906 14.2686C32.1786 13.4806 33.4562 13.4806 34.2443 14.2686C35.0323 15.0566 35.0323 16.3342 34.2443 17.1222L17.1223 34.2442C16.3343 35.0322 15.0566 35.0322 14.2686 34.2442Z" fill="url(#paint1_linear_195_25519)"/>
<path d="M14.248 22.8096C15.036 22.0216 16.3136 22.0216 17.1016 22.8096L25.6626 31.3706C26.4506 32.1586 26.4506 33.4363 25.6626 34.2243C24.8746 35.0123 23.597 35.0123 22.809 34.2243L14.248 25.6633C13.46 24.8753 13.46 23.5977 14.248 22.8096Z" fill="url(#paint2_linear_195_25519)"/>
<path d="M14.268 5.70759C15.056 4.91958 16.3336 4.91958 17.1217 5.70759L34.2436 22.8296C35.0316 23.6176 35.0316 24.8952 34.2436 25.6832C33.4556 26.4712 32.178 26.4712 31.39 25.6832L14.268 8.56125C13.48 7.77324 13.48 6.49561 14.268 5.70759Z" fill="url(#paint3_linear_195_25519)"/>
<path d="M48.9512 13.6486H51.3986L54.3251 19.2385H54.4419L57.3683 13.6486H59.8158L55.4641 21.5708V26.2846H53.3029V21.5708L48.9512 13.6486Z" fill="#404040"/>
<path d="M71.3653 19.9666C71.3653 21.3281 71.1239 22.4942 70.641 23.4649C70.162 24.4315 69.5078 25.1719 68.6783 25.6861C67.8528 26.2002 66.9162 26.4573 65.8687 26.4573C64.8212 26.4573 63.8827 26.2002 63.0533 25.6861C62.2277 25.1678 61.5735 24.4254 61.0906 23.4587C60.6117 22.488 60.3722 21.324 60.3722 19.9666C60.3722 18.6051 60.6117 17.441 61.0906 16.4744C61.5735 15.5037 62.2277 14.7612 63.0533 14.2471C63.8827 13.7329 64.8212 13.4758 65.8687 13.4758C66.9162 13.4758 67.8528 13.7329 68.6783 14.2471C69.5078 14.7612 70.162 15.5037 70.641 16.4744C71.1239 17.441 71.3653 18.6051 71.3653 19.9666ZM69.1865 19.9666C69.1865 19.0082 69.0444 18.1999 68.7601 17.5418C68.4797 16.8796 68.0903 16.3798 67.5919 16.0425C67.0934 15.7011 66.519 15.5304 65.8687 15.5304C65.2184 15.5304 64.644 15.7011 64.1456 16.0425C63.6471 16.3798 63.2558 16.8796 62.9715 17.5418C62.6911 18.1999 62.5509 19.0082 62.5509 19.9666C62.5509 20.925 62.6911 21.7353 62.9715 22.3975C63.2558 23.0556 63.6471 23.5554 64.1456 23.8968C64.644 24.2341 65.2184 24.4027 65.8687 24.4027C66.519 24.4027 67.0934 24.2341 67.5919 23.8968C68.0903 23.5554 68.4797 23.0556 68.7601 22.3975C69.0444 21.7353 69.1865 20.925 69.1865 19.9666Z" fill="#404040"/>
<path d="M80.9551 13.6486H83.1221V21.9039C83.1221 22.8088 82.9197 23.6048 82.5147 24.2917C82.1136 24.9786 81.5489 25.5154 80.8207 25.902C80.0925 26.2846 79.2416 26.4758 78.2681 26.4758C77.2907 26.4758 76.4379 26.2846 75.7097 25.902C74.9815 25.5154 74.4168 24.9786 74.0157 24.2917C73.6146 23.6048 73.4141 22.8088 73.4141 21.9039V13.6486H75.5812V21.7127C75.5812 22.2392 75.6902 22.7081 75.9083 23.1194C76.1302 23.5307 76.4418 23.8536 76.8429 24.0881C77.244 24.3184 77.719 24.4336 78.2681 24.4336C78.8172 24.4336 79.2923 24.3184 79.6934 24.0881C80.0984 23.8536 80.4099 23.5307 80.628 23.1194C80.846 22.7081 80.9551 22.2392 80.9551 21.7127V13.6486Z" fill="#404040"/>
<path d="M85.4776 26.2846V13.6486H89.9636C90.8827 13.6486 91.6537 13.8172 92.2768 14.1545C92.9037 14.4918 93.3768 14.9648 93.6962 15.5736C94.0194 16.1783 94.181 16.8837 94.181 17.6899C94.181 18.5002 94.0174 19.2036 93.6903 19.8C93.3671 20.3923 92.8901 20.8509 92.2592 21.1759C91.6284 21.4967 90.8535 21.6571 89.9344 21.6571H86.7393V19.7568H89.6424C90.1798 19.7568 90.6198 19.6786 90.9625 19.5223C91.3052 19.3619 91.5583 19.1295 91.7218 18.8251C91.8893 18.5166 91.973 18.1382 91.973 17.6899C91.973 17.2415 91.8893 16.859 91.7218 16.5423C91.5544 16.2214 91.2993 15.9788 90.9566 15.8142C90.614 15.6456 90.172 15.5613 89.6307 15.5613H87.6447V26.2846H85.4776ZM91.6576 20.5589L94.6191 26.2846H92.2008L89.2919 20.5589H91.6576Z" fill="#404040"/>
<path d="M100.256 26.2846V13.6486H102.423V24.3657H107.692V26.2846H100.256Z" fill="#404040"/>
<path d="M119.796 19.9666C119.796 21.3281 119.555 22.4942 119.072 23.4649C118.593 24.4315 117.939 25.1719 117.109 25.6861C116.284 26.2002 115.347 26.4573 114.3 26.4573C113.252 26.4573 112.314 26.2002 111.484 25.6861C110.659 25.1678 110.004 24.4254 109.521 23.4587C109.042 22.488 108.803 21.324 108.803 19.9666C108.803 18.6051 109.042 17.441 109.521 16.4744C110.004 15.5037 110.659 14.7612 111.484 14.2471C112.314 13.7329 113.252 13.4758 114.3 13.4758C115.347 13.4758 116.284 13.7329 117.109 14.2471C117.939 14.7612 118.593 15.5037 119.072 16.4744C119.555 17.441 119.796 18.6051 119.796 19.9666ZM117.617 19.9666C117.617 19.0082 117.475 18.1999 117.191 17.5418C116.911 16.8796 116.521 16.3798 116.023 16.0425C115.524 15.7011 114.95 15.5304 114.3 15.5304C113.649 15.5304 113.075 15.7011 112.576 16.0425C112.078 16.3798 111.687 16.8796 111.402 17.5418C111.122 18.1999 110.982 19.0082 110.982 19.9666C110.982 20.925 111.122 21.7353 111.402 22.3975C111.687 23.0556 112.078 23.5554 112.576 23.8968C113.075 24.2341 113.649 24.4027 114.3 24.4027C114.95 24.4027 115.524 24.2341 116.023 23.8968C116.521 23.5554 116.911 23.0556 117.191 22.3975C117.475 21.7353 117.617 20.925 117.617 19.9666Z" fill="#404040"/>
<path d="M129.859 17.6837C129.762 17.3505 129.627 17.0523 129.456 16.7891C129.289 16.5217 129.086 16.2934 128.848 16.1042C128.615 15.915 128.346 15.7731 128.042 15.6785C127.739 15.5798 127.408 15.5304 127.049 15.5304C126.407 15.5304 125.834 15.7011 125.332 16.0425C124.83 16.3839 124.434 16.8857 124.146 17.548C123.862 18.2061 123.72 19.0082 123.72 19.9542C123.72 20.9085 123.862 21.7168 124.146 22.379C124.431 23.0412 124.826 23.5451 125.332 23.8906C125.838 24.232 126.426 24.4027 127.096 24.4027C127.704 24.4027 128.229 24.2793 128.673 24.0325C129.121 23.7857 129.466 23.4361 129.707 22.9837C129.949 22.5271 130.069 21.9924 130.069 21.3795L130.56 21.4597H127.312V19.6704H132.166V21.1882C132.166 22.27 131.948 23.2058 131.512 23.9955C131.076 24.7853 130.476 25.394 129.713 25.8218C128.95 26.2455 128.074 26.4573 127.084 26.4573C125.982 26.4573 125.015 26.1961 124.181 25.6737C123.352 25.1472 122.704 24.4007 122.236 23.4341C121.773 22.4633 121.541 21.3116 121.541 19.9789C121.541 18.9588 121.677 18.0477 121.95 17.2456C122.227 16.4436 122.612 15.7628 123.107 15.2034C123.601 14.6399 124.181 14.2121 124.847 13.9201C125.513 13.6239 126.237 13.4758 127.02 13.4758C127.682 13.4758 128.299 13.5787 128.872 13.7843C129.444 13.9859 129.952 14.2738 130.396 14.6481C130.844 15.0224 131.212 15.4667 131.5 15.9808C131.789 16.495 131.977 17.0626 132.067 17.6837H129.859Z" fill="#404040"/>
<path d="M144.951 19.9666C144.951 21.3281 144.71 22.4942 144.227 23.4649C143.748 24.4315 143.094 25.1719 142.264 25.6861C141.439 26.2002 140.502 26.4573 139.455 26.4573C138.407 26.4573 137.469 26.2002 136.639 25.6861C135.814 25.1678 135.159 24.4254 134.677 23.4587C134.198 22.488 133.958 21.324 133.958 19.9666C133.958 18.6051 134.198 17.441 134.677 16.4744C135.159 15.5037 135.814 14.7612 136.639 14.2471C137.469 13.7329 138.407 13.4758 139.455 13.4758C140.502 13.4758 141.439 13.7329 142.264 14.2471C143.094 14.7612 143.748 15.5037 144.227 16.4744C144.71 17.441 144.951 18.6051 144.951 19.9666ZM142.772 19.9666C142.772 19.0082 142.63 18.1999 142.346 17.5418C142.066 16.8796 141.676 16.3798 141.178 16.0425C140.679 15.7011 140.105 15.5304 139.455 15.5304C138.804 15.5304 138.23 15.7011 137.731 16.0425C137.233 16.3798 136.842 16.8796 136.557 17.5418C136.277 18.1999 136.137 19.0082 136.137 19.9666C136.137 20.925 136.277 21.7353 136.557 22.3975C136.842 23.0556 137.233 23.5554 137.731 23.8968C138.23 24.2341 138.804 24.4027 139.455 24.4027C140.105 24.4027 140.679 24.2341 141.178 23.8968C141.676 23.5554 142.066 23.0556 142.346 22.3975C142.63 21.7353 142.772 20.925 142.772 19.9666Z" fill="#404040"/>
<defs>
<linearGradient id="paint0_linear_195_25519" x1="5.70759" y1="25.6832" x2="26.1431" y2="5.24765" gradientUnits="userSpaceOnUse">
<stop stop-color="#432BDA"/>
<stop offset="1" stop-color="#086AD8"/>
</linearGradient>
<linearGradient id="paint1_linear_195_25519" x1="14.2686" y1="34.2442" x2="34.7042" y2="13.8087" gradientUnits="userSpaceOnUse">
<stop stop-color="#432BDA"/>
<stop offset="1" stop-color="#086AD8"/>
</linearGradient>
<linearGradient id="paint2_linear_195_25519" x1="14.248" y1="22.8096" x2="25.9254" y2="34.4871" gradientUnits="userSpaceOnUse">
<stop stop-color="#432BDA"/>
<stop offset="1" stop-color="#086AD8"/>
</linearGradient>
<linearGradient id="paint3_linear_195_25519" x1="14.268" y1="5.70759" x2="34.7035" y2="26.1431" gradientUnits="userSpaceOnUse">
<stop stop-color="#432BDA"/>
<stop offset="1" stop-color="#086AD8"/>
</linearGradient>
</defs>
</svg>
