<svg width="153" height="37" viewBox="0 0 153 37" fill="none" xmlns="http://www.w3.org/2000/svg">
<path d="M5.15179 23.1843C4.44044 22.4729 4.44044 21.3196 5.15179 20.6082L20.608 5.15198C21.3194 4.44063 22.4727 4.44063 23.1841 5.15198C23.8954 5.86334 23.8954 7.01667 23.1841 7.72802L7.72783 23.1843C7.01648 23.8956 5.86314 23.8956 5.15179 23.1843Z" fill="#F8F8F8"/>
<path d="M12.8798 30.9123C12.1685 30.2009 12.1685 29.0476 12.8798 28.3362L28.3361 12.88C29.0474 12.1687 30.2007 12.1687 30.9121 12.88C31.6234 13.5914 31.6234 14.7447 30.9121 15.456L15.4559 30.9123C14.7445 31.6236 13.5912 31.6236 12.8798 30.9123Z" fill="#F8F8F8"/>
<path d="M12.8619 20.5903C13.5732 19.8789 14.7266 19.8789 15.4379 20.5903L23.166 28.3184C23.8774 29.0297 23.8774 30.1831 23.166 30.8944C22.4547 31.6058 21.3014 31.6058 20.59 30.8944L12.8619 23.1663C12.1505 22.455 12.1505 21.3016 12.8619 20.5903Z" fill="#F8F8F8"/>
<path d="M12.8799 5.15203C13.5913 4.44068 14.7446 4.44068 15.456 5.15203L30.9122 20.6083C31.6236 21.3196 31.6236 22.473 30.9122 23.1843C30.2009 23.8957 29.0475 23.8957 28.3362 23.1843L12.8799 7.72807C12.1686 7.01672 12.1686 5.86339 12.8799 5.15203Z" fill="#F8F8F8"/>
<path d="M52.7139 11.7421H55.2706L58.3277 17.2707H58.4497L61.5068 11.7421H64.0635L59.5176 19.5773V24.2393H57.2598V19.5773L52.7139 11.7421Z" fill="#F8F8F8"/>
<path d="M76.1286 17.9907C76.1286 19.3372 75.8764 20.4905 75.372 21.4506C74.8716 22.4066 74.1882 23.1389 73.3217 23.6474C72.4593 24.1559 71.481 24.4101 70.3867 24.4101C69.2924 24.4101 68.312 24.1559 67.4455 23.6474C66.5831 23.1348 65.8997 22.4005 65.3953 21.4445C64.8949 20.4844 64.6447 19.3332 64.6447 17.9907C64.6447 16.6442 64.8949 15.4929 65.3953 14.5369C65.8997 13.5768 66.5831 12.8426 67.4455 12.3341C68.312 11.8255 69.2924 11.5713 70.3867 11.5713C71.481 11.5713 72.4593 11.8255 73.3217 12.3341C74.1882 12.8426 74.8716 13.5768 75.372 14.5369C75.8764 15.4929 76.1286 16.6442 76.1286 17.9907ZM73.8526 17.9907C73.8526 17.0428 73.7041 16.2435 73.4071 15.5926C73.1142 14.9376 72.7074 14.4433 72.1867 14.1098C71.666 13.7721 71.066 13.6033 70.3867 13.6033C69.7073 13.6033 69.1073 13.7721 68.5866 14.1098C68.0659 14.4433 67.6571 14.9376 67.3601 15.5926C67.0672 16.2435 66.9208 17.0428 66.9208 17.9907C66.9208 18.9386 67.0672 19.74 67.3601 20.3949C67.6571 21.0458 68.0659 21.5401 68.5866 21.8777C69.1073 22.2113 69.7073 22.3781 70.3867 22.3781C71.066 22.3781 71.666 22.2113 72.1867 21.8777C72.7074 21.5401 73.1142 21.0458 73.4071 20.3949C73.7041 19.74 73.8526 18.9386 73.8526 17.9907Z" fill="#F8F8F8"/>
<path d="M86.1465 11.7421H88.4103V19.9068C88.4103 20.8017 88.1988 21.5889 87.7757 22.2683C87.3567 22.9477 86.7669 23.4785 86.0062 23.8609C85.2454 24.2393 84.3566 24.4284 83.3396 24.4284C82.3185 24.4284 81.4277 24.2393 80.6669 23.8609C79.9062 23.4785 79.3164 22.9477 78.8974 22.2683C78.4784 21.5889 78.2689 20.8017 78.2689 19.9068V11.7421H80.5327V19.7176C80.5327 20.2383 80.6466 20.7021 80.8744 21.1089C81.1063 21.5157 81.4317 21.835 81.8507 22.0669C82.2697 22.2947 82.766 22.4086 83.3396 22.4086C83.9132 22.4086 84.4095 22.2947 84.8285 22.0669C85.2516 21.835 85.577 21.5157 85.8048 21.1089C86.0326 20.7021 86.1465 20.2383 86.1465 19.7176V11.7421Z" fill="#F8F8F8"/>
<path d="M90.8709 24.2393V11.7421H95.5573C96.5173 11.7421 97.3228 11.9089 97.9736 12.2425C98.6286 12.5761 99.1228 13.0439 99.4564 13.646C99.794 14.244 99.9629 14.9417 99.9629 15.739C99.9629 16.5404 99.792 17.2361 99.4503 17.826C99.1127 18.4118 98.6143 18.8653 97.9553 19.1867C97.2963 19.504 96.4868 19.6627 95.5267 19.6627H92.189V17.7832H95.2216C95.783 17.7832 96.2427 17.7059 96.6007 17.5514C96.9587 17.3927 97.2231 17.1629 97.3939 16.8618C97.5689 16.5567 97.6563 16.1824 97.6563 15.739C97.6563 15.2956 97.5689 14.9173 97.3939 14.604C97.219 14.2867 96.9526 14.0467 96.5946 13.884C96.2366 13.7172 95.7749 13.6338 95.2094 13.6338H93.1348V24.2393H90.8709ZM97.3268 18.5765L100.421 24.2393H97.8943L94.8555 18.5765H97.3268Z" fill="#F8F8F8"/>
<path d="M106.309 24.2393V11.7421H108.573V22.3415H114.077V24.2393H106.309Z" fill="#F8F8F8"/>
<path d="M126.721 17.9907C126.721 19.3372 126.469 20.4905 125.965 21.4506C125.464 22.4066 124.781 23.1389 123.915 23.6474C123.052 24.1559 122.074 24.4101 120.98 24.4101C119.885 24.4101 118.905 24.1559 118.038 23.6474C117.176 23.1348 116.493 22.4005 115.988 21.4445C115.488 20.4844 115.238 19.3332 115.238 17.9907C115.238 16.6442 115.488 15.4929 115.988 14.5369C116.493 13.5768 117.176 12.8426 118.038 12.3341C118.905 11.8255 119.885 11.5713 120.98 11.5713C122.074 11.5713 123.052 11.8255 123.915 12.3341C124.781 12.8426 125.464 13.5768 125.965 14.5369C126.469 15.4929 126.721 16.6442 126.721 17.9907ZM124.445 17.9907C124.445 17.0428 124.297 16.2435 124 15.5926C123.707 14.9376 123.3 14.4433 122.78 14.1098C122.259 13.7721 121.659 13.6033 120.98 13.6033C120.3 13.6033 119.7 13.7721 119.179 14.1098C118.659 14.4433 118.25 14.9376 117.953 15.5926C117.66 16.2435 117.514 17.0428 117.514 17.9907C117.514 18.9386 117.66 19.74 117.953 20.3949C118.25 21.0458 118.659 21.5401 119.179 21.8777C119.7 22.2113 120.3 22.3781 120.98 22.3781C121.659 22.3781 122.259 22.2113 122.78 21.8777C123.3 21.5401 123.707 21.0458 124 20.3949C124.297 19.74 124.445 18.9386 124.445 17.9907Z" fill="#F8F8F8"/>
<path d="M137.234 15.7329C137.132 15.4034 136.992 15.1085 136.813 14.8481C136.638 14.5837 136.426 14.3579 136.178 14.1708C135.934 13.9837 135.653 13.8433 135.336 13.7497C135.019 13.6521 134.673 13.6033 134.299 13.6033C133.627 13.6033 133.029 13.7721 132.505 14.1098C131.98 14.4474 131.567 14.9437 131.266 15.5987C130.969 16.2496 130.82 17.0428 130.82 17.9785C130.82 18.9223 130.969 19.7217 131.266 20.3766C131.563 21.0316 131.976 21.5299 132.505 21.8716C133.033 22.2093 133.648 22.3781 134.347 22.3781C134.982 22.3781 135.531 22.2561 135.995 22.012C136.463 21.7679 136.823 21.4221 137.075 20.9746C137.327 20.5231 137.453 19.9942 137.453 19.3881L137.966 19.4674H134.573V17.6978H139.644V19.1989C139.644 20.2688 139.416 21.1943 138.96 21.9754C138.505 22.7565 137.878 23.3585 137.081 23.7816C136.284 24.2006 135.368 24.4101 134.335 24.4101C133.184 24.4101 132.173 24.1518 131.303 23.6352C130.436 23.1144 129.759 22.3761 129.271 21.4201C128.786 20.46 128.544 19.321 128.544 18.0029C128.544 16.994 128.687 16.093 128.972 15.2997C129.26 14.5064 129.663 13.8331 130.18 13.2799C130.696 12.7226 131.303 12.2995 131.998 12.0106C132.694 11.7177 133.45 11.5713 134.268 11.5713C134.96 11.5713 135.604 11.673 136.202 11.8764C136.8 12.0757 137.331 12.3605 137.795 12.7307C138.263 13.1009 138.647 13.5402 138.948 14.0487C139.249 14.5573 139.447 15.1186 139.54 15.7329H137.234Z" fill="#F8F8F8"/>
<path d="M153 17.9907C153 19.3372 152.747 20.4905 152.243 21.4506C151.743 22.4066 151.059 23.1389 150.193 23.6474C149.33 24.1559 148.352 24.4101 147.258 24.4101C146.163 24.4101 145.183 24.1559 144.316 23.6474C143.454 23.1348 142.771 22.4005 142.266 21.4445C141.766 20.4844 141.516 19.3332 141.516 17.9907C141.516 16.6442 141.766 15.4929 142.266 14.5369C142.771 13.5768 143.454 12.8426 144.316 12.3341C145.183 11.8255 146.163 11.5713 147.258 11.5713C148.352 11.5713 149.33 11.8255 150.193 12.3341C151.059 12.8426 151.743 13.5768 152.243 14.5369C152.747 15.4929 153 16.6442 153 17.9907ZM150.724 17.9907C150.724 17.0428 150.575 16.2435 150.278 15.5926C149.985 14.9376 149.578 14.4433 149.058 14.1098C148.537 13.7721 147.937 13.6033 147.258 13.6033C146.578 13.6033 145.978 13.7721 145.458 14.1098C144.937 14.4433 144.528 14.9376 144.231 15.5926C143.938 16.2435 143.792 17.0428 143.792 17.9907C143.792 18.9386 143.938 19.74 144.231 20.3949C144.528 21.0458 144.937 21.5401 145.458 21.8777C145.978 22.2113 146.578 22.3781 147.258 22.3781C147.937 22.3781 148.537 22.2113 149.058 21.8777C149.578 21.5401 149.985 21.0458 150.278 20.3949C150.575 19.74 150.724 18.9386 150.724 17.9907Z" fill="#F8F8F8"/>
</svg>
