<svg width="52" height="52" viewBox="0 0 52 52" fill="none" xmlns="http://www.w3.org/2000/svg">
<rect width="53" height="53" rx="5" fill="url(#paint0_linear_54_1512)"/>
<path d="M8.72976 24.1472C8.97092 23.8956 9.26045 23.6957 9.5808 23.5598C9.90114 23.424 10.2456 23.3549 10.5933 23.3567C10.9161 23.3538 11.236 23.4164 11.534 23.541C11.8169 23.6628 12.0786 23.8293 12.309 24.0343C12.4024 24.1148 12.5234 24.1554 12.6462 24.1472C12.7105 24.1435 12.7734 24.1269 12.8312 24.0986C12.8891 24.0703 12.9408 24.0308 12.9834 23.9823C13.0631 23.885 13.1014 23.7601 13.0899 23.6346C13.0867 23.5735 13.0709 23.5138 13.0437 23.4591C13.0165 23.4044 12.9784 23.3559 12.9317 23.3166C12.6245 23.0354 12.2679 22.8142 11.8801 22.6643C11.4691 22.5082 11.0327 22.4301 10.5933 22.434C10.1145 22.4301 9.64001 22.5262 9.20009 22.7163C8.33999 23.0844 7.65916 23.7786 7.30546 24.648C7.02972 25.3136 6.95478 26.0459 7.08994 26.7539C7.2251 27.4619 7.56441 28.1144 8.06568 28.6303C8.3903 28.9598 8.77559 29.2227 9.20009 29.4044C9.64001 29.5945 10.1145 29.6907 10.5933 29.6868C11.0327 29.6907 11.4691 29.6126 11.8801 29.4565C12.2679 29.3065 12.6245 29.0853 12.9317 28.8041C12.9784 28.7649 13.0165 28.7164 13.0437 28.6617C13.0709 28.607 13.0867 28.5472 13.0899 28.4861C13.1014 28.3607 13.0631 28.2357 12.9834 28.1384C12.9408 28.09 12.8891 28.0504 12.8312 28.0221C12.7734 27.9938 12.7105 27.9773 12.6462 27.9735C12.5234 27.9654 12.4024 28.0059 12.309 28.0864C12.0786 28.2914 11.8169 28.458 11.534 28.5798C11.236 28.7043 10.9161 28.767 10.5933 28.764C10.2373 28.7675 9.88455 28.6956 9.55802 28.553C9.24584 28.4183 8.96295 28.2234 8.72533 27.9794C8.48797 27.7322 8.30061 27.441 8.17365 27.1221C7.90935 26.4428 7.90935 25.6884 8.17365 25.0091C8.30258 24.6888 8.49135 24.3962 8.72976 24.1472Z" fill="white"/>
<path d="M15.1186 24.7417C15.0574 24.7404 14.9965 24.7522 14.9402 24.7763C14.8838 24.8003 14.8332 24.8362 14.7917 24.8814C14.7486 24.9252 14.7146 24.9772 14.6917 25.0343C14.6688 25.0915 14.6576 25.1527 14.6586 25.2143V29.1638C14.6576 29.2257 14.6688 29.2871 14.6916 29.3445C14.7145 29.4019 14.7485 29.4541 14.7917 29.4982C14.8338 29.5426 14.8846 29.5777 14.9408 29.6015C14.997 29.6253 15.0576 29.6372 15.1186 29.6364C15.1813 29.6386 15.2438 29.6275 15.3019 29.6036C15.3601 29.5798 15.4125 29.5439 15.4558 29.4982C15.499 29.4541 15.533 29.4019 15.5559 29.3445C15.5787 29.2871 15.59 29.2257 15.5889 29.1638V25.2128C15.5899 25.1512 15.5787 25.09 15.5558 25.0328C15.533 24.9757 15.499 24.9237 15.4558 24.8799C15.4125 24.8342 15.3601 24.7983 15.3019 24.7745C15.2438 24.7506 15.1813 24.7395 15.1186 24.7417Z" fill="white"/>
<path d="M30.362 23.3777V23.3584C30.362 23.3465 30.362 23.3331 30.362 23.3197C30.362 23.3019 30.362 23.2841 30.3487 23.2662C30.3329 23.2096 30.3057 23.1567 30.2688 23.111C30.2319 23.0653 30.1861 23.0276 30.1343 23.0002H30.1268L30.1091 22.9913H30.0899C29.9874 22.9446 29.8711 22.9388 29.7645 22.975C29.7061 22.994 29.652 23.0245 29.6055 23.0649C29.559 23.1052 29.5211 23.1545 29.4938 23.2098L27.2561 27.5056L25.0375 23.189C24.9819 23.0777 24.8845 22.9933 24.7669 22.9542C24.6598 22.9176 24.5429 22.9234 24.44 22.9705H24.4223L24.4045 22.9794C24.3528 23.0072 24.3071 23.0451 24.27 23.0907C24.233 23.1364 24.2053 23.189 24.1886 23.2454C24.1886 23.2633 24.1797 23.2811 24.1767 23.2989C24.1761 23.3118 24.1761 23.3247 24.1767 23.3375C24.176 23.344 24.176 23.3505 24.1767 23.3569C24.1767 23.3569 24.1767 23.3717 24.1767 23.3792V29.1431C24.1757 29.2049 24.1869 29.2663 24.2098 29.3237C24.2326 29.3811 24.2667 29.4333 24.3099 29.4774C24.352 29.5218 24.4027 29.5569 24.4589 29.5807C24.5152 29.6045 24.5757 29.6164 24.6367 29.6156C24.6995 29.6178 24.762 29.6067 24.8201 29.5828C24.8782 29.559 24.9307 29.5231 24.9739 29.4774C25.0601 29.3878 25.1074 29.2676 25.1056 29.1431V25.3123L26.8686 28.73C26.8863 28.7655 26.9087 28.7985 26.9351 28.828C26.9886 28.8904 27.0582 28.9367 27.1363 28.9618H27.154H27.1703H27.191H27.2191H27.3463H27.3729H27.3936H27.4114H27.4276C27.5057 28.9367 27.5753 28.8904 27.6288 28.828C27.6562 28.7989 27.6791 28.7659 27.6968 28.73V28.73L29.4583 25.3123V29.1639C29.4573 29.2257 29.4685 29.2871 29.4914 29.3445C29.5142 29.4019 29.5483 29.4541 29.5914 29.4982C29.6347 29.5439 29.6872 29.5798 29.7453 29.6036C29.8034 29.6275 29.8659 29.6386 29.9287 29.6364C29.9897 29.6372 30.0502 29.6253 30.1064 29.6015C30.1627 29.5777 30.2134 29.5426 30.2555 29.4982C30.3417 29.4086 30.389 29.2884 30.3872 29.1639V23.4C30.3799 23.3913 30.3715 23.3838 30.362 23.3777V23.3777Z" fill="white"/>
<path d="M22.1159 24.8842C22.0727 24.842 22.0215 24.8088 21.9654 24.7866C21.9093 24.7644 21.8493 24.7536 21.789 24.755H18.8547V23.4176C18.8558 23.3558 18.8446 23.2944 18.8217 23.2369C18.7989 23.1795 18.7648 23.1273 18.7215 23.0833C18.6783 23.0376 18.6258 23.0017 18.5677 22.9778C18.5096 22.954 18.4471 22.9429 18.3843 22.9451C18.3233 22.9443 18.2628 22.9562 18.2065 22.98C18.1503 23.0037 18.0996 23.0389 18.0575 23.0833C18.0144 23.1274 17.9806 23.1797 17.9579 23.2371C17.9353 23.2945 17.9244 23.3559 17.9258 23.4176V24.755H17.2543C17.193 24.7539 17.1321 24.7653 17.0753 24.7882C17.0184 24.8112 16.9666 24.8453 16.923 24.8887C16.8789 24.931 16.8439 24.982 16.8202 25.0385C16.7965 25.095 16.7847 25.1558 16.7855 25.2171C16.7833 25.2801 16.7944 25.3429 16.8181 25.4013C16.8418 25.4597 16.8776 25.5124 16.923 25.5559C16.9666 25.5992 17.0184 25.6334 17.0753 25.6564C17.1321 25.6793 17.193 25.6906 17.2543 25.6896H17.9258V29.1771C17.9245 29.2388 17.9355 29.3002 17.9581 29.3576C17.9807 29.415 18.0145 29.4673 18.0575 29.5114C18.0996 29.5558 18.1503 29.591 18.2065 29.6147C18.2628 29.6385 18.3233 29.6504 18.3843 29.6496C18.4471 29.6518 18.5096 29.6407 18.5677 29.6169C18.6258 29.593 18.6783 29.5571 18.7215 29.5114C18.7647 29.4674 18.7987 29.4151 18.8216 29.3577C18.8445 29.3003 18.8557 29.2389 18.8547 29.1771V25.6762H21.3157V29.1637C21.3147 29.2255 21.3259 29.2869 21.3488 29.3443C21.3716 29.4017 21.4057 29.454 21.4489 29.498C21.4906 29.5429 21.5412 29.5784 21.5976 29.6023C21.6539 29.6261 21.7146 29.6377 21.7757 29.6362C21.8382 29.6383 21.9004 29.627 21.9583 29.6032C22.0162 29.5794 22.0683 29.5435 22.1115 29.498C22.1546 29.454 22.1887 29.4017 22.2115 29.3443C22.2344 29.2869 22.2456 29.2255 22.2446 29.1637V25.2037C22.2453 25.1445 22.2343 25.0858 22.2122 25.031C22.1901 24.9761 22.1574 24.9262 22.1159 24.8842V24.8842Z" fill="white"/>
<path d="M36.085 24.7416C36.0238 24.7404 35.963 24.7522 35.9067 24.7763C35.8504 24.8004 35.7997 24.8361 35.7582 24.8813C35.715 24.9251 35.681 24.9771 35.6581 25.0342C35.6353 25.0914 35.624 25.1526 35.6251 25.2142V25.5113C35.5437 25.3751 35.4402 25.2536 35.3189 25.1517C35.1959 25.0493 35.0602 24.9634 34.9151 24.8962C34.7652 24.8284 34.6078 24.7785 34.4463 24.7476C34.2832 24.7141 34.1172 24.6972 33.9508 24.6971C33.633 24.6955 33.3179 24.7545 33.022 24.8709C32.73 24.9843 32.4643 25.1566 32.2412 25.3771C32.0182 25.5977 31.8424 25.8618 31.7249 26.1533C31.4646 26.822 31.4646 27.5648 31.7249 28.2336C31.8453 28.5281 32.0239 28.795 32.2499 29.0181C32.4744 29.2298 32.7376 29.3958 33.0249 29.507C33.3198 29.6275 33.6354 29.6886 33.9538 29.6868C34.1205 29.6868 34.2867 29.6679 34.4492 29.6303C34.6114 29.5945 34.7687 29.5396 34.9181 29.4669C35.0624 29.3959 35.1979 29.3081 35.3219 29.2053C35.4435 29.1038 35.5471 28.9822 35.628 28.8458V29.1637C35.627 29.2256 35.6382 29.287 35.6611 29.3444C35.6839 29.4018 35.7179 29.454 35.7611 29.4981C35.8032 29.5424 35.854 29.5776 35.9102 29.6014C35.9665 29.6252 36.027 29.637 36.088 29.6363C36.1507 29.6385 36.2132 29.6273 36.2714 29.6035C36.3295 29.5797 36.3819 29.5438 36.4252 29.4981C36.4684 29.454 36.5024 29.4018 36.5253 29.3444C36.5481 29.287 36.5594 29.2256 36.5583 29.1637V25.2127C36.5593 25.1511 36.5481 25.0899 36.5252 25.0327C36.5024 24.9756 36.4684 24.9236 36.4252 24.8798C36.3816 24.8337 36.3287 24.7976 36.27 24.7737C36.2113 24.7499 36.1483 24.739 36.085 24.7416V24.7416ZM35.4934 27.8502C35.4137 28.0405 35.2953 28.2121 35.1459 28.3539C34.9998 28.4902 34.8284 28.5963 34.6415 28.666C34.4487 28.7389 34.2441 28.7757 34.0381 28.7744C33.8296 28.7759 33.6229 28.7355 33.4302 28.6556C33.247 28.5797 33.0806 28.4681 32.9406 28.3272C32.7986 28.1831 32.6861 28.0125 32.6093 27.8249C32.5246 27.6187 32.4828 27.3972 32.4866 27.1741C32.4827 26.9524 32.5245 26.7324 32.6093 26.5277C32.6846 26.3439 32.7962 26.1772 32.9372 26.0378C33.0783 25.8983 33.246 25.789 33.4302 25.7164C33.6239 25.6405 33.8301 25.6022 34.0381 25.6035C34.2333 25.6043 34.4269 25.639 34.6104 25.706C34.7976 25.7719 34.9708 25.8727 35.1207 26.0032C35.275 26.1393 35.3986 26.307 35.4831 26.495C35.5778 26.708 35.6248 26.9393 35.6206 27.1726C35.6235 27.4053 35.5782 27.636 35.4875 27.8502H35.4934Z" fill="white"/>
<path d="M41.3752 24.7936C41.2815 24.7508 41.1816 24.7233 41.0794 24.7118C40.9814 24.6979 40.8825 24.691 40.7835 24.691C40.491 24.6839 40.2052 24.7801 39.976 24.963C39.7151 25.2058 39.5335 25.5223 39.4554 25.8709V25.2126C39.4563 25.1511 39.4452 25.0901 39.4226 25.033C39.4 24.9759 39.3664 24.9238 39.3238 24.8798C39.2806 24.8338 39.2282 24.7976 39.1701 24.7735C39.112 24.7494 39.0494 24.738 38.9865 24.7401C38.9253 24.7387 38.8645 24.7505 38.8081 24.7746C38.7518 24.7987 38.7012 24.8345 38.6597 24.8798C38.6165 24.9235 38.5825 24.9755 38.5596 25.0327C38.5368 25.0898 38.5255 25.151 38.5266 25.2126V29.1622C38.5255 29.224 38.5367 29.2854 38.5596 29.3428C38.5825 29.4002 38.6165 29.4525 38.6597 29.4965C38.7018 29.5409 38.7525 29.5761 38.8088 29.5999C38.865 29.6236 38.9255 29.6355 38.9865 29.6347C39.0493 29.637 39.1118 29.6258 39.1699 29.602C39.228 29.5782 39.2805 29.5422 39.3238 29.4965C39.4099 29.4069 39.4572 29.2867 39.4554 29.1622V27.8382C39.4542 27.5393 39.4799 27.2409 39.5323 26.9467C39.5751 26.6971 39.6544 26.4553 39.7675 26.229C39.8617 26.0395 40.0003 25.8759 40.1712 25.752C40.3451 25.6324 40.5522 25.571 40.7628 25.5767H40.8708C40.9065 25.577 40.9422 25.5805 40.9773 25.5871C41.12 25.6034 41.2646 25.5898 41.4018 25.5469C41.4617 25.5247 41.5141 25.4857 41.5528 25.4347C41.5916 25.3837 41.6151 25.3226 41.6207 25.2587C41.6451 25.1574 41.6286 25.0505 41.5748 24.9615C41.5241 24.8888 41.4553 24.8309 41.3752 24.7936Z" fill="white"/>
<path d="M45.2191 24.9064C45.1822 24.8697 45.1383 24.8408 45.09 24.8214C45.0418 24.802 44.9901 24.7925 44.9381 24.7935H44.2652V23.4086C44.2663 23.3469 44.2552 23.2856 44.2326 23.2282C44.21 23.1708 44.1763 23.1185 44.1335 23.0743C44.0903 23.0286 44.0378 22.9926 43.9797 22.9688C43.9216 22.945 43.8591 22.9338 43.7963 22.9361C43.7353 22.9353 43.6748 22.9472 43.6186 22.9709C43.5623 22.9947 43.5116 23.0299 43.4695 23.0743C43.4262 23.1183 43.3921 23.1705 43.3693 23.2279C43.3464 23.2853 43.3352 23.3468 43.3363 23.4086V24.7935H42.8261C42.7741 24.7925 42.7225 24.802 42.6742 24.8214C42.6259 24.8408 42.582 24.8697 42.5451 24.9064C42.5072 24.9415 42.4772 24.9843 42.4571 25.032C42.437 25.0796 42.4271 25.131 42.4282 25.1828C42.4264 25.2364 42.4358 25.2898 42.456 25.3395C42.4761 25.3892 42.5065 25.434 42.5451 25.4711C42.6203 25.5442 42.7214 25.5842 42.8261 25.5825H43.3363V29.1636C43.3353 29.2254 43.3465 29.2868 43.3694 29.3442C43.3923 29.4016 43.4263 29.4539 43.4695 29.4979C43.5116 29.5423 43.5623 29.5775 43.6186 29.6012C43.6748 29.625 43.7353 29.6369 43.7963 29.6361C43.8591 29.6384 43.9216 29.6272 43.9797 29.6034C44.0378 29.5795 44.0903 29.5436 44.1335 29.4979C44.2197 29.4083 44.267 29.2881 44.2652 29.1636V25.5825H44.9396C45.0443 25.5842 45.1454 25.5442 45.2206 25.4711C45.2584 25.4356 45.2884 25.3925 45.3085 25.3446C45.3286 25.2968 45.3385 25.2452 45.3375 25.1932C45.3391 25.1397 45.3294 25.0865 45.309 25.037C45.2886 24.9876 45.258 24.943 45.2191 24.9064V24.9064Z" fill="white"/>
<path d="M21.7841 22.9363C21.6638 22.936 21.5462 22.9716 21.446 23.0385C21.3458 23.1054 21.2677 23.2007 21.2215 23.3123C21.1752 23.4238 21.163 23.5467 21.1863 23.6652C21.2096 23.7838 21.2673 23.8927 21.3523 23.9783C21.4372 24.0639 21.5456 24.1222 21.6635 24.1459C21.7815 24.1696 21.9038 24.1575 22.0149 24.1114C22.1261 24.0652 22.2211 23.9869 22.288 23.8864C22.3548 23.786 22.3905 23.6678 22.3905 23.547C22.3905 23.3853 22.3267 23.2302 22.213 23.1157C22.0993 23.0012 21.9451 22.9367 21.7841 22.9363Z" fill="white"/>
<path d="M15.1175 22.9363C14.9973 22.9363 14.8797 22.9721 14.7798 23.0392C14.6798 23.1063 14.6019 23.2017 14.5559 23.3133C14.5099 23.4249 14.4978 23.5477 14.5213 23.6661C14.5447 23.7846 14.6026 23.8934 14.6877 23.9788C14.7727 24.0642 14.881 24.1224 14.9989 24.146C15.1168 24.1695 15.239 24.1574 15.3501 24.1112C15.4612 24.065 15.5561 23.9867 15.6229 23.8863C15.6897 23.7859 15.7254 23.6678 15.7254 23.547C15.7254 23.385 15.6613 23.2297 15.5473 23.1152C15.4333 23.0006 15.2787 22.9363 15.1175 22.9363Z" fill="white"/>
<path d="M39.0261 30.446C38.9285 30.5352 38.8294 30.6243 38.7303 30.712L38.5824 30.8428L38.5069 30.9081L38.4285 30.9706L38.112 31.2172L37.9538 31.3391L37.7896 31.455C37.6802 31.5307 37.5707 31.6036 37.4598 31.6823C37.4036 31.7195 37.3489 31.7596 37.2927 31.7938L37.1211 31.9007C36.8948 32.0493 36.6641 32.1831 36.4289 32.3109C35.4849 32.8309 34.4946 33.2612 33.4709 33.5962C31.4074 34.2628 29.2503 34.5899 27.083 34.565C26 34.559 24.9193 34.4655 23.8513 34.2857C22.7838 34.1083 21.7334 33.8398 20.7113 33.4833C19.6924 33.1284 18.7094 32.6771 17.7755 32.1355L17.6009 32.0345L17.4308 31.926C17.317 31.8547 17.2046 31.7774 17.0922 31.7091C17.0359 31.6719 16.9797 31.6377 16.9235 31.5991L16.7594 31.4817C16.6499 31.4044 16.542 31.3257 16.434 31.2469C16.326 31.1682 16.221 31.085 16.1175 31.0003L15.8069 30.7477C15.7551 30.7061 15.7063 30.66 15.659 30.6154L15.5111 30.4802C15.4135 30.3896 15.3158 30.2989 15.2153 30.2068C15.3366 30.2633 15.4578 30.3197 15.5762 30.3777C15.6945 30.4356 15.8113 30.4951 15.9326 30.5486L16.2905 30.709C16.4103 30.7625 16.5272 30.8205 16.6484 30.868C17.1306 31.0716 17.6098 31.2648 18.0979 31.4371C19.0659 31.7826 20.0537 32.0694 21.0559 32.296C23.0397 32.7487 25.0665 32.9834 27.1007 32.9959C29.1373 33.0151 31.1702 32.8159 33.1647 32.4015C34.1636 32.1938 35.1494 31.9269 36.1168 31.6021L36.3002 31.5426L36.3934 31.5129L36.4836 31.4787L36.8489 31.3465L37.0323 31.2811C37.0945 31.2588 37.1536 31.2336 37.2143 31.2098C37.3341 31.1608 37.4553 31.1147 37.5781 31.0612L37.7571 31.0077L37.9375 30.9304L38.2999 30.7818L38.3901 30.7432L38.4803 30.7016L38.6593 30.6199L39.0261 30.446Z" fill="white"/>
<defs>
<linearGradient id="paint0_linear_54_1512" x1="2.9616e-07" y1="26.5" x2="53" y2="26.5" gradientUnits="userSpaceOnUse">
<stop stop-color="#FF0000"/>
<stop offset="1" stop-color="#A71111"/>
</linearGradient>
</defs>
</svg>
