<svg width="32" height="32" viewBox="0 0 32 32" fill="none" xmlns="http://www.w3.org/2000/svg">
<path d="M16 0C7.21187 0 0 7.21187 0 16C0 24.7881 7.21187 32 16 32C24.7881 32 32 24.7881 32 16C32 7.21187 24.7881 0 16 0ZM15.5768 21.9019C14.7297 22.672 13.4272 22.641 12.6177 21.8315L8.38282 17.5967C7.65066 16.8645 7.65066 15.6775 8.38282 14.9453C9.11497 14.2132 10.302 14.2132 11.0342 14.9453L13.2622 17.1734C13.7796 17.6907 14.6121 17.7105 15.1534 17.2184L21.7889 11.1864C22.555 10.49 23.7406 10.5463 24.4372 11.3122C25.1341 12.0783 25.0778 13.2644 24.3114 13.9611L15.5768 21.9019Z" fill="#2405F2"/>
</svg>
