<svg width="35" height="36" viewBox="0 0 35 36" fill="none" xmlns="http://www.w3.org/2000/svg">
<g clip-path="url(#clip0_54_1448)">
<path d="M29.3038 10.4444L31.656 8.09354C32.2263 7.52479 32.2263 6.60167 31.656 6.03146C31.0858 5.46125 30.1642 5.46125 29.594 6.03146L27.2417 8.38229C24.9463 6.485 22.0865 5.24542 18.9583 4.94938V3.41667H21.875C22.6815 3.41667 23.3333 2.76333 23.3333 1.95833C23.3333 1.15333 22.6815 0.5 21.875 0.5H13.125C12.3185 0.5 11.6667 1.15333 11.6667 1.95833C11.6667 2.76333 12.3185 3.41667 13.125 3.41667H16.0417V4.94938C8.28042 5.68583 2.1875 12.2367 2.1875 20.1875C2.1875 28.6313 9.05625 35.5 17.5 35.5C25.9438 35.5 32.8125 28.6313 32.8125 20.1875C32.8125 16.4892 31.4942 13.0942 29.3038 10.4444ZM18.9583 20.1875C18.9583 20.994 18.305 21.6458 17.5 21.6458C16.695 21.6458 16.0417 20.994 16.0417 20.1875V12.1667C16.0417 11.3602 16.695 10.7083 17.5 10.7083C18.305 10.7083 18.9583 11.3602 18.9583 12.1667V20.1875Z" fill="#2405F2"/>
</g>
<defs>
<clipPath id="clip0_54_1448">
<path d="M0 0.5H35V35.5H0V0.5Z" fill="white"/>
</clipPath>
</defs>
</svg>
