<svg width="35" height="36" viewBox="0 0 35 36" fill="none" xmlns="http://www.w3.org/2000/svg">
<g clip-path="url(#clip0_54_1441)">
<path d="M34.9994 24.186C34.9994 19.8427 32.5078 15.9665 28.7761 14.0811C28.6602 22.4086 21.9086 29.1602 13.5811 29.2761C15.4665 33.0078 19.3427 35.4994 23.686 35.4994C25.7223 35.4994 27.7026 34.9571 29.4426 33.9266L34.95 35.45L33.4266 29.9426C34.4571 28.2026 34.9994 26.2223 34.9994 24.186Z" fill="#2405F2"/>
<path d="M26.7285 13.8643C26.7285 6.49506 20.7335 0.5 13.3643 0.5C5.99506 0.5 0 6.49506 0 13.8643C0 16.2659 0.639267 18.6043 1.85318 20.6572L0.0491333 27.1791L6.57131 25.3753C8.62423 26.5892 10.9626 27.2285 13.3643 27.2285C20.7335 27.2285 26.7285 21.2335 26.7285 13.8643ZM11.3135 10.7539H9.2627C9.2627 8.49217 11.1025 6.65234 13.3643 6.65234C15.626 6.65234 17.4658 8.49217 17.4658 10.7539C17.4658 11.9019 16.9798 13.0052 16.132 13.7807L14.3896 15.3754V16.9746H12.3389V14.4723L14.7475 12.2677C15.1779 11.8738 15.415 11.3363 15.415 10.7539C15.415 9.62304 14.4951 8.70312 13.3643 8.70312C12.2334 8.70312 11.3135 9.62304 11.3135 10.7539ZM12.3389 19.0254H14.3896V21.0762H12.3389V19.0254Z" fill="#2405F2"/>
</g>
<defs>
<clipPath id="clip0_54_1441">
<path d="M0 0.5H35V35.5H0V0.5Z" fill="white"/>
</clipPath>
</defs>
</svg>
