<svg width="35" height="36" viewBox="0 0 35 36" fill="none" xmlns="http://www.w3.org/2000/svg">
<g clip-path="url(#clip0_54_1428)">
<path d="M2.64172 10.393L9.89237 3.14235L8.68379 1.93377C6.68481 -0.0652085 3.43213 -0.0652085 1.43341 1.93404C0.464898 2.90229 -0.0683594 4.18964 -0.0683594 5.55923C-0.0683594 6.92856 0.464898 8.21617 1.43341 9.18442L2.64172 10.393Z" fill="#2405F2"/>
<path d="M4.0918 11.8426L6.992 8.94238L11.1478 13.0982L8.24757 15.9984L4.0918 11.8426Z" fill="#2405F2"/>
<path d="M8.44238 7.492L11.3426 4.5918L15.4984 8.74731L12.5982 11.6475L8.44238 7.492Z" fill="#2405F2"/>
<path d="M24.9643 31.264C24.9643 31.2643 24.9643 31.2643 24.964 31.2643L24.4863 31.7423L33.5261 35.3581C33.6494 35.4075 33.7784 35.4315 33.9066 35.4315C34.1736 35.4315 34.4358 35.3271 34.6318 35.1311C34.9218 34.8411 35.011 34.4061 34.8588 34.0251L31.243 24.9854L24.9643 31.264Z" fill="#2405F2"/>
<path d="M19.3652 27.115L22.2654 24.2148L25.6888 27.6384L22.7886 30.5386L19.3652 27.115Z" fill="#2405F2"/>
<path d="M23.7148 22.7657L26.615 19.8652L30.0386 23.2888L27.1384 26.189L23.7148 22.7657Z" fill="#2405F2"/>
<path d="M8.80609 28.0075C8.40555 28.4078 8.40555 29.0572 8.80609 29.4575L11.4646 32.116L8.44934 35.1313C8.04907 35.5318 7.39965 35.5318 6.99937 35.1313L0.232049 28.364C-0.168495 27.9637 -0.168495 27.3143 0.232049 26.914L26.414 0.732049C26.8143 0.331505 27.4637 0.331505 27.864 0.732049L34.6313 7.49911C34.8316 7.69938 34.9317 7.96187 34.9317 8.22436C34.9317 8.48658 34.8316 8.74907 34.6313 8.94934L31.616 11.9646L27.9908 8.33918C27.5903 7.93864 26.9411 7.93864 26.5406 8.33918C26.1403 8.73973 26.1403 9.38887 26.5406 9.78942L30.1658 13.4146L27.8757 15.7049L25.2172 13.0461C24.8169 12.6458 24.1675 12.6458 23.7669 13.0461C23.3667 13.4467 23.3667 14.0958 23.7669 14.4963L26.4255 17.1549L24.1354 19.4452L20.5103 15.8197C20.1097 15.4195 19.4606 15.4195 19.06 15.8197C18.6597 16.2203 18.6597 16.8694 19.06 17.27L22.6852 20.8952L20.3952 23.1855L17.7366 20.5269C17.3361 20.1264 16.6869 20.1264 16.2864 20.5269C15.8861 20.9272 15.8861 21.5764 16.2864 21.9769L18.9449 24.6354L16.6549 26.9258L13.0297 23.3003C12.6292 22.9 11.98 22.9 11.5795 23.3003C11.1792 23.7008 11.1792 24.35 11.5795 24.7505L15.2047 28.3757L12.9146 30.666L10.2561 28.0075C9.85579 27.607 9.20637 27.607 8.80609 28.0075Z" fill="#2405F2"/>
</g>
<defs>
<clipPath id="clip0_54_1428">
<path d="M0 0.5H35V35.5H0V0.5Z" fill="white"/>
</clipPath>
</defs>
</svg>
