<svg width="32" height="28" viewBox="0 0 32 28" fill="none" xmlns="http://www.w3.org/2000/svg">
<path d="M15.9998 10.9144C19.0029 10.9144 21.4373 8.47999 21.4373 5.47697C21.4373 2.47395 19.0029 0.0395203 15.9998 0.0395203C12.9968 0.0395203 10.5624 2.47395 10.5624 5.47697C10.5624 8.47999 12.9968 10.9144 15.9998 10.9144Z" fill="#2405F2"/>
<path d="M27 10.9145C28.8984 10.9145 30.4374 9.37545 30.4374 7.47699C30.4374 5.57853 28.8984 4.03952 27 4.03952C25.1015 4.03952 23.5625 5.57853 23.5625 7.47699C23.5625 9.37545 25.1015 10.9145 27 10.9145Z" fill="#2405F2"/>
<path d="M4.99997 10.9144C6.89843 10.9144 8.43744 9.37542 8.43744 7.47696C8.43744 5.5785 6.89843 4.03949 4.99997 4.03949C3.10151 4.03949 1.5625 5.5785 1.5625 7.47696C1.5625 9.37542 3.10151 10.9144 4.99997 10.9144Z" fill="#2405F2"/>
<path d="M8.3868 14.0009C7.03369 12.8923 5.80826 13.039 4.24371 13.039C1.90373 13.039 0 14.9315 0 17.2571V24.0827C0 25.0927 0.824368 25.9139 1.83811 25.9139C6.21469 25.9139 5.68745 25.9931 5.68745 25.7252C5.68745 20.8886 5.11458 17.3417 8.3868 14.0009Z" fill="#2405F2"/>
<path d="M17.4882 13.0644C14.7555 12.8365 12.3802 13.0671 10.3314 14.7582C6.90288 17.5044 7.56268 21.2021 7.56268 25.7256C7.56268 26.9224 8.53642 27.9143 9.75141 27.9143C22.9439 27.9143 23.469 28.3399 24.2513 26.6074C24.5078 26.0216 24.4375 26.2078 24.4375 20.6031C24.4375 16.1515 20.583 13.0644 17.4882 13.0644Z" fill="#2405F2"/>
<path d="M27.7564 13.0399C26.1833 13.0399 24.9646 12.8947 23.6133 14.0018C26.8611 17.3178 26.3126 20.6227 26.3126 25.7261C26.3126 25.9957 25.8749 25.9148 30.0963 25.9148C31.1463 25.9148 32.0001 25.0642 32.0001 24.0186V17.258C32.0001 14.9324 30.0963 13.0399 27.7564 13.0399Z" fill="#2405F2"/>
</svg>
