<svg width="522" height="412" viewBox="0 0 522 412" fill="none" xmlns="http://www.w3.org/2000/svg">
<g filter="url(#filter0_f_54_1165)">
<ellipse cx="311" cy="366.5" rx="166" ry="5.5" fill="url(#paint0_radial_54_1165)"/>
</g>
<path d="M399.851 141.246L146.873 144.557C140.776 144.63 135.071 142.285 131.009 138.037C126.947 133.789 124.861 127.984 125.207 121.897L130.651 28.0547C131.011 21.967 133.775 16.0989 138.336 11.7379C142.897 7.37683 148.883 4.87894 154.981 4.7922L407.959 1.48053C414.056 1.40764 419.761 3.75248 423.823 8.00063C427.885 12.2488 429.971 18.0533 429.625 24.1409L424.181 117.983C423.821 124.071 421.058 129.939 416.497 134.3C411.935 138.661 405.949 141.159 399.851 141.246Z" fill="white"/>
<path d="M290.591 58.3701L250.594 58.8937C249.533 58.9076 248.54 58.5002 247.834 57.7611C247.127 57.022 246.764 56.0118 246.826 54.9528C246.887 53.8937 247.368 52.8724 248.161 52.1137C248.955 51.355 249.996 50.921 251.057 50.9071L291.054 50.3835C292.115 50.3696 293.108 50.777 293.814 51.5161C294.521 52.2552 294.883 53.2654 294.822 54.3245C294.76 55.3835 294.28 56.4048 293.487 57.1635C292.693 57.9222 291.651 58.3562 290.591 58.3701Z" fill="#CCCCCC"/>
<path d="M375.309 79.2074L248.32 80.8698C247.259 80.8836 246.266 80.4762 245.56 79.7372C244.853 78.9981 244.49 77.9879 244.552 76.9288C244.613 75.8697 245.094 74.8485 245.887 74.0898C246.681 73.3311 247.722 72.8971 248.783 72.8832L375.772 71.2208C376.833 71.2069 377.826 71.6143 378.533 72.3534C379.239 73.0925 379.602 74.1027 379.54 75.1617C379.479 76.2208 378.999 77.242 378.205 78.0007C377.412 78.7594 376.37 79.1935 375.309 79.2074Z" fill="#CCCCCC"/>
<path d="M201.135 93.2773C215.946 93.0834 228.647 80.9392 229.505 66.1524C230.363 51.3655 219.052 39.5356 204.241 39.7295C189.431 39.9234 176.729 52.0676 175.872 66.8545C175.014 81.6413 186.325 93.4712 201.135 93.2773Z" fill="#085BD8"/>
<g filter="url(#filter1_d_54_1165)">
<path d="M494.836 152.764L360.278 154.525C359.429 154.527 358.59 154.431 357.777 154.239C355.349 153.681 353.24 152.307 351.791 150.34C350.342 148.373 349.638 145.928 349.792 143.4L352.441 97.7365C352.619 94.7495 353.976 91.8709 356.215 89.7321C358.454 87.5933 361.392 86.369 364.383 86.3278L498.792 84.5683C500.604 84.5398 502.364 84.9528 503.92 85.7716C504.54 86.094 505.122 86.4798 505.656 86.9232C506.935 87.9522 507.939 89.2761 508.593 90.794C509.246 92.3118 509.532 93.9835 509.428 95.6814L506.779 141.345C506.602 144.333 505.245 147.214 503.006 149.354C500.768 151.495 497.829 152.721 494.836 152.764Z" fill="white"/>
<path d="M485.875 151.884C492.844 136.979 500.132 122.216 507.738 107.595L506.309 132.233C501.291 139.298 495.578 145.87 489.265 151.839L485.875 151.884Z" fill="#E6E6E6"/>
<path d="M504.985 87.7096C491.64 109.521 477.754 131.011 463.327 152.179L461.027 152.209C475.693 130.709 489.82 108.86 503.407 86.6628C503.971 86.9559 504.499 87.3065 504.985 87.7096Z" fill="#E6E6E6"/>
<path d="M414.9 112.511C406.191 126.56 396.692 140.141 386.453 153.185L372.744 153.364C382.357 142.325 391.976 131.286 401.602 120.246C404.365 117.068 407.356 113.737 411.299 112.408L414.9 112.511Z" fill="#E6E6E6"/>
<path d="M396.812 110.513C395.296 112.019 393.836 113.585 392.453 115.209C389.415 118.66 386.416 122.141 383.407 125.612C381.533 127.771 379.659 129.931 377.806 132.09C377.277 131.745 376.778 131.358 376.314 130.932C373.69 128.574 372.172 125.217 372.086 121.58C372 117.944 373.353 114.317 375.854 111.477C378.355 108.637 381.805 106.809 385.466 106.386C389.127 105.964 392.707 106.979 395.439 109.214C395.932 109.609 396.391 110.044 396.812 110.513Z" fill="#085BD8"/>
<path d="M473.573 119.205L447.851 109.955L435.079 105.364C430.919 103.872 426.782 102.16 422.457 101.1C418.703 100.061 414.646 100.166 410.789 101.402C407.339 102.694 404.137 104.65 401.373 107.152C400.152 108.235 398.964 109.351 397.812 110.5C396.296 112.006 394.836 113.572 393.453 115.196C390.415 118.647 387.416 122.128 384.407 125.599C382.533 127.759 380.659 129.918 378.805 132.077C372.616 139.211 366.46 146.361 360.336 153.527C359.568 153.528 358.808 153.441 358.073 153.267C364.461 145.802 370.874 138.352 377.314 130.919C378.054 130.052 378.814 129.174 379.564 128.306C382.701 124.684 385.842 121.065 388.986 117.449C391.416 114.654 393.828 111.839 396.439 109.201C396.673 108.959 396.906 108.726 397.15 108.484C402.438 103.267 408.932 98.6333 416.398 98.4159C420.792 98.2885 424.951 99.6207 428.945 101.035C433.243 102.565 437.529 104.125 441.825 105.674L467.722 114.992L474.201 117.321C475.347 117.725 474.737 119.628 473.573 119.205Z" fill="#E6E6E6"/>
</g>
<g filter="url(#filter2_d_54_1165)">
<path d="M224.701 199.889L30.7179 202.428C24.6209 202.501 18.9157 200.157 14.854 195.908C10.7922 191.66 8.70557 185.856 9.05186 179.768L11.0209 145.825C11.381 139.737 14.1448 133.869 18.7059 129.508C23.2671 125.147 29.2532 122.649 35.3509 122.563L229.334 120.023C235.431 119.95 241.136 122.295 245.198 126.543C249.26 130.792 251.347 136.596 251 142.684L249.031 176.627C248.671 182.714 245.908 188.582 241.346 192.943C236.785 197.305 230.799 199.802 224.701 199.889Z" fill="white"/>
<path d="M88.7832 182.591L57.5975 182.999C55.9307 183.019 54.3709 182.378 53.2605 181.217C52.15 180.055 51.5795 178.468 51.6742 176.804L53.3639 147.677C53.4623 146.013 54.2179 144.408 55.4649 143.216C56.7119 142.024 58.3484 141.341 60.0155 141.317L91.2011 140.909C92.868 140.889 94.4278 141.53 95.5382 142.691C96.6487 143.853 97.2192 145.44 97.1245 147.104L95.4348 176.231C95.3364 177.896 94.5808 179.5 93.3338 180.692C92.0868 181.884 90.4502 182.567 88.7832 182.591Z" fill="#085BD8"/>
<path d="M144.41 181.863L113.225 182.271C111.558 182.291 109.998 181.65 108.888 180.488C107.777 179.327 107.207 177.74 107.301 176.076L108.991 146.949C109.089 145.284 109.845 143.68 111.092 142.488C112.339 141.295 113.976 140.613 115.643 140.589L146.828 140.181C148.495 140.161 150.055 140.802 151.165 141.963C152.276 143.124 152.846 144.711 152.752 146.376L151.062 175.503C150.963 177.167 150.208 178.772 148.961 179.964C147.714 181.156 146.077 181.839 144.41 181.863Z" fill="#E6E6E6"/>
<path d="M200.036 181.134L168.851 181.543C167.184 181.563 165.624 180.922 164.514 179.76C163.403 178.599 162.833 177.012 162.927 175.347L164.617 146.22C164.715 144.556 165.471 142.952 166.718 141.759C167.965 140.567 169.602 139.884 171.269 139.861L202.454 139.452C204.121 139.432 205.681 140.073 206.791 141.235C207.902 142.396 208.472 143.983 208.378 145.647L206.688 174.775C206.59 176.439 205.834 178.043 204.587 179.236C203.34 180.428 201.703 181.111 200.036 181.134Z" fill="#E6E6E6"/>
</g>
<g filter="url(#filter3_d_54_1165)">
<path d="M479.903 313.263L226.925 316.575C220.828 316.648 215.123 314.303 211.061 310.055C206.999 305.807 204.912 300.002 205.259 293.914L210.702 200.072C211.063 193.985 213.826 188.116 218.388 183.755C222.949 179.394 228.935 176.897 235.032 176.81L488.011 173.498C494.108 173.425 499.813 175.77 503.875 180.018C507.936 184.266 510.023 190.071 509.677 196.158L504.233 290.001C503.873 296.088 501.109 301.956 496.548 306.318C491.987 310.679 486.001 313.176 479.903 313.263Z" fill="white"/>
<path d="M331.406 212.701L288.913 213.257C288.38 213.265 287.857 213.168 287.376 212.971C286.895 212.774 286.464 212.482 286.108 212.11C285.753 211.739 285.479 211.296 285.303 210.807C285.127 210.318 285.053 209.792 285.084 209.259C285.115 208.726 285.25 208.198 285.483 207.703C285.716 207.208 286.042 206.758 286.441 206.376C286.84 205.995 287.306 205.691 287.81 205.481C288.315 205.272 288.85 205.16 289.383 205.154L331.876 204.598C332.951 204.586 333.957 205 334.672 205.749C335.388 206.499 335.755 207.523 335.693 208.596C335.63 209.67 335.144 210.705 334.34 211.475C333.537 212.244 332.481 212.685 331.406 212.701Z" fill="#085BD8"/>
<path d="M425.699 228.024L287.951 229.828C286.875 229.842 285.868 229.428 285.151 228.679C284.434 227.929 284.066 226.904 284.128 225.829C284.191 224.755 284.678 223.719 285.483 222.949C286.288 222.179 287.345 221.739 288.421 221.725L426.17 219.921C427.246 219.907 428.253 220.321 428.97 221.071C429.687 221.82 430.055 222.845 429.992 223.92C429.93 224.994 429.443 226.03 428.638 226.8C427.833 227.57 426.776 228.01 425.699 228.024Z" fill="#E6E6E6"/>
<path d="M424.596 247.045L286.848 248.848C286.315 248.855 285.793 248.757 285.313 248.56C284.832 248.363 284.402 248.071 284.047 247.699C283.692 247.328 283.419 246.885 283.244 246.396C283.068 245.908 282.994 245.382 283.025 244.85C283.056 244.318 283.191 243.79 283.424 243.296C283.656 242.801 283.981 242.351 284.38 241.97C284.778 241.589 285.243 241.284 285.747 241.074C286.251 240.864 286.785 240.752 287.318 240.745L425.066 238.942C426.142 238.928 427.15 239.341 427.867 240.091C428.584 240.841 428.951 241.866 428.889 242.941C428.827 244.015 428.339 245.051 427.534 245.821C426.729 246.591 425.672 247.031 424.596 247.045Z" fill="#E6E6E6"/>
<path d="M423.493 266.066L285.745 267.869C285.211 267.877 284.689 267.78 284.208 267.583C283.727 267.386 283.296 267.094 282.94 266.723C282.585 266.351 282.311 265.908 282.135 265.419C281.959 264.93 281.885 264.404 281.916 263.871C281.947 263.338 282.082 262.81 282.315 262.315C282.548 261.82 282.874 261.37 283.273 260.988C283.672 260.607 284.138 260.303 284.642 260.093C285.147 259.884 285.682 259.773 286.215 259.766L423.963 257.963C425.038 257.951 426.044 258.365 426.76 259.115C427.475 259.864 427.842 260.888 427.78 261.962C427.718 263.035 427.231 264.07 426.427 264.84C425.624 265.609 424.568 266.05 423.493 266.066Z" fill="#E6E6E6"/>
<path d="M422.389 285.086L284.641 286.89C283.565 286.904 282.557 286.49 281.84 285.741C281.124 284.991 280.756 283.966 280.818 282.891C280.881 281.817 281.368 280.781 282.173 280.011C282.978 279.241 284.035 278.801 285.111 278.787L422.859 276.983C423.936 276.969 424.943 277.383 425.66 278.133C426.377 278.882 426.745 279.907 426.682 280.982C426.62 282.056 426.133 283.092 425.328 283.862C424.522 284.632 423.466 285.072 422.389 285.086Z" fill="#E6E6E6"/>
</g>
<defs>
<filter id="filter0_f_54_1165" x="105" y="321" width="412" height="91" filterUnits="userSpaceOnUse" color-interpolation-filters="sRGB">
<feFlood flood-opacity="0" result="BackgroundImageFix"/>
<feBlend mode="normal" in="SourceGraphic" in2="BackgroundImageFix" result="shape"/>
<feGaussianBlur stdDeviation="20" result="effect1_foregroundBlur_54_1165"/>
</filter>
<filter id="filter1_d_54_1165" x="331.771" y="70.5669" width="177.677" height="83.9583" filterUnits="userSpaceOnUse" color-interpolation-filters="sRGB">
<feFlood flood-opacity="0" result="BackgroundImageFix"/>
<feColorMatrix in="SourceAlpha" type="matrix" values="0 0 0 0 0 0 0 0 0 0 0 0 0 0 0 0 0 0 127 0" result="hardAlpha"/>
<feOffset dx="-12" dy="-8"/>
<feGaussianBlur stdDeviation="3"/>
<feComposite in2="hardAlpha" operator="out"/>
<feColorMatrix type="matrix" values="0 0 0 0 0 0 0 0 0 0 0 0 0 0 0 0 0 0 0.05 0"/>
<feBlend mode="normal" in2="BackgroundImageFix" result="effect1_dropShadow_54_1165"/>
<feBlend mode="normal" in="SourceGraphic" in2="effect1_dropShadow_54_1165" result="shape"/>
</filter>
<filter id="filter2_d_54_1165" x="9.01472" y="107.022" width="259.023" height="95.4084" filterUnits="userSpaceOnUse" color-interpolation-filters="sRGB">
<feFlood flood-opacity="0" result="BackgroundImageFix"/>
<feColorMatrix in="SourceAlpha" type="matrix" values="0 0 0 0 0 0 0 0 0 0 0 0 0 0 0 0 0 0 127 0" result="hardAlpha"/>
<feOffset dx="11" dy="-7"/>
<feGaussianBlur stdDeviation="3"/>
<feComposite in2="hardAlpha" operator="out"/>
<feColorMatrix type="matrix" values="0 0 0 0 0 0 0 0 0 0 0 0 0 0 0 0 0 0 0.05 0"/>
<feBlend mode="normal" in2="BackgroundImageFix" result="effect1_dropShadow_54_1165"/>
<feBlend mode="normal" in="SourceGraphic" in2="effect1_dropShadow_54_1165" result="shape"/>
</filter>
<filter id="filter3_d_54_1165" x="185.222" y="154.497" width="324.492" height="162.08" filterUnits="userSpaceOnUse" color-interpolation-filters="sRGB">
<feFlood flood-opacity="0" result="BackgroundImageFix"/>
<feColorMatrix in="SourceAlpha" type="matrix" values="0 0 0 0 0 0 0 0 0 0 0 0 0 0 0 0 0 0 127 0" result="hardAlpha"/>
<feOffset dx="-14" dy="-13"/>
<feGaussianBlur stdDeviation="3"/>
<feComposite in2="hardAlpha" operator="out"/>
<feColorMatrix type="matrix" values="0 0 0 0 0 0 0 0 0 0 0 0 0 0 0 0 0 0 0.05 0"/>
<feBlend mode="normal" in2="BackgroundImageFix" result="effect1_dropShadow_54_1165"/>
<feBlend mode="normal" in="SourceGraphic" in2="effect1_dropShadow_54_1165" result="shape"/>
</filter>
<radialGradient id="paint0_radial_54_1165" cx="0" cy="0" r="1" gradientUnits="userSpaceOnUse" gradientTransform="translate(312.363 372) rotate(-179.132) scale(231.131 15008.3)">
<stop/>
<stop offset="1" stop-color="#C4C4C4" stop-opacity="0"/>
</radialGradient>
</defs>
</svg>
