<svg width="511" height="418" viewBox="0 0 511 418" fill="none" xmlns="http://www.w3.org/2000/svg">
<g filter="url(#filter0_d_66_5598)">
<rect x="86.4546" y="96.0002" width="127.029" height="76" rx="5.42857" transform="rotate(7.02303 86.4546 96.0002)" fill="white"/>
</g>
<rect x="116.992" y="109.838" width="44" height="4" rx="2" transform="rotate(7.02303 116.992 109.838)" fill="#E3E3E3"/>
<rect x="92.5894" y="127.99" width="44" height="4" rx="2" transform="rotate(7.02303 92.5894 127.99)" fill="#DCDCDC"/>
<rect x="91.7334" y="134.938" width="110" height="4" rx="2" transform="rotate(7.02303 91.7334 134.938)" fill="#EFEFEF"/>
<rect x="90.8774" y="141.885" width="110" height="4" rx="2" transform="rotate(7.02303 90.8774 141.885)" fill="#EFEFEF"/>
<rect x="90.0217" y="148.833" width="110" height="4" rx="2" transform="rotate(7.02303 90.0217 148.833)" fill="#EFEFEF"/>
<rect x="116.136" y="116.785" width="25" height="3" rx="1.5" transform="rotate(7.02303 116.136 116.785)" fill="#EFEFEF"/>
<path d="M189.762 121.009L186.665 120.628L186.497 121.997C186.647 121.868 186.847 121.772 187.096 121.708C187.346 121.645 187.61 121.631 187.888 121.665C188.384 121.726 188.78 121.889 189.077 122.154C189.38 122.42 189.586 122.741 189.694 123.117C189.802 123.493 189.83 123.889 189.779 124.306C189.684 125.08 189.389 125.669 188.896 126.071C188.404 126.467 187.761 126.617 186.967 126.519C186.438 126.454 185.989 126.308 185.621 126.081C185.253 125.847 184.983 125.556 184.812 125.205C184.64 124.855 184.57 124.467 184.602 124.041L186.26 124.245C186.274 124.455 186.349 124.639 186.484 124.797C186.62 124.948 186.82 125.04 187.085 125.072C187.396 125.111 187.64 125.04 187.816 124.86C187.993 124.68 188.102 124.425 188.143 124.094C188.182 123.77 188.134 123.512 187.996 123.321C187.858 123.129 187.637 123.014 187.333 122.977C187.108 122.949 186.916 122.983 186.756 123.077C186.598 123.165 186.484 123.296 186.416 123.468L184.778 123.267L185.31 118.949L189.945 119.52L189.762 121.009Z" fill="#EFEFEF"/>
<path d="M197.475 119.819C197.869 118.934 199.165 119.07 199.366 120.018L199.632 121.272C199.722 121.696 200.075 122.013 200.505 122.059L201.78 122.193C202.743 122.295 203.014 123.57 202.175 124.054L201.064 124.694C200.689 124.911 200.496 125.344 200.586 125.768L200.852 127.022C201.053 127.969 199.924 128.621 199.204 127.972L198.252 127.114C197.93 126.824 197.458 126.774 197.083 126.991L195.973 127.631C195.134 128.115 194.166 127.243 194.56 126.358L195.082 125.187C195.258 124.792 195.16 124.327 194.838 124.037L193.886 123.179C193.166 122.531 193.697 121.34 194.66 121.442L195.934 121.576C196.365 121.622 196.776 121.385 196.953 120.989L197.475 119.819Z" fill="#EFEFEF"/>
<rect x="89.0435" y="156.772" width="35" height="10" rx="3" transform="rotate(7.02303 89.0435 156.772)" fill="#36397D"/>
<rect x="127.751" y="161.541" width="35" height="10" rx="3" transform="rotate(7.02303 127.751 161.541)" fill="#085BD8"/>
<rect x="21.6414" y="196.832" width="232" height="177" rx="5" transform="rotate(7.02303 21.6414 196.832)" fill="white"/>
<rect x="54.0842" y="236.093" width="7" height="113" rx="3.5" transform="rotate(7.02303 54.0842 236.093)" fill="#E4F5FF"/>
<path d="M53.6563 239.567C53.8926 237.648 55.6395 236.285 57.558 236.521C59.4765 236.757 60.8401 238.504 60.6038 240.423L57.2414 267.716L50.2939 266.86L53.6563 239.567Z" fill="#085BD8"/>
<rect x="50.2939" y="266.86" width="7" height="34" transform="rotate(7.02303 50.2939 266.86)" fill="#36397D"/>
<path opacity="0.2" d="M41.5786 357.072L41.6801 356.248L43.546 356.478L42.662 363.654L41.7489 363.541L42.5314 357.189L41.5786 357.072Z" fill="black"/>
<rect x="73.1501" y="285.797" width="7" height="66" rx="3.5" transform="rotate(7.02303 73.1501 285.797)" fill="#E4F5FF"/>
<path d="M72.7222 289.271C72.9586 287.352 74.7054 285.989 76.6239 286.225C78.5424 286.461 79.906 288.208 79.6697 290.127L77.8838 304.623L70.9363 303.767L72.7222 289.271Z" fill="#085BD8"/>
<rect x="70.9363" y="303.767" width="7" height="19.8584" transform="rotate(7.02303 70.9363 303.767)" fill="#36397D"/>
<path opacity="0.2" d="M63.8418 365.527C64.7652 364.956 65.4917 364.485 66.021 364.113C66.5512 363.735 67.0074 363.331 67.3895 362.901C67.779 362.466 68.0019 362.02 68.0581 361.563C68.1111 361.133 68.0468 360.782 67.8652 360.512C67.6911 360.235 67.3724 360.068 66.9093 360.011C66.4593 359.956 66.0911 360.055 65.8047 360.308C65.5256 360.556 65.3472 360.913 65.2695 361.381L64.3961 361.273C64.5139 360.535 64.8093 359.991 65.2825 359.639C65.7557 359.288 66.3264 359.153 66.9947 359.236C67.6762 359.32 68.1923 359.575 68.5428 360.001C68.9 360.427 69.0378 360.972 68.9563 361.633C68.8886 362.183 68.6572 362.698 68.2619 363.18C67.8741 363.656 67.4474 364.067 66.9816 364.413C66.5167 364.752 65.9278 365.143 65.215 365.586L68.6291 366.006L68.5362 366.761L63.7623 366.172L63.8418 365.527Z" fill="black"/>
<rect x="100.775" y="266.026" width="7" height="89" rx="3.5" transform="rotate(7.02303 100.775 266.026)" fill="#E4F5FF"/>
<path d="M100.347 269.5C100.583 267.582 102.33 266.218 104.248 266.454C106.167 266.691 107.531 268.437 107.294 270.356L104.737 291.115L97.7894 290.259L100.347 269.5Z" fill="#085BD8"/>
<rect x="97.7893" y="290.259" width="7" height="26.7788" transform="rotate(7.02303 97.7893 290.259)" fill="#36397D"/>
<path opacity="0.2" d="M89.3158 363.95C89.4371 363.347 89.7307 362.9 90.1966 362.608C90.6624 362.316 91.2328 362.211 91.9077 362.295C92.3576 362.35 92.7345 362.48 93.0383 362.686C93.3496 362.885 93.5708 363.134 93.702 363.432C93.8398 363.732 93.8871 364.056 93.8439 364.407C93.7934 364.817 93.6307 365.157 93.3558 365.425C93.0875 365.694 92.7595 365.849 92.3718 365.888L92.3657 365.938C92.7827 366.097 93.0978 366.347 93.3109 366.689C93.524 367.031 93.5996 367.453 93.5377 367.956C93.4912 368.333 93.3632 368.664 93.1537 368.947C92.945 369.223 92.658 369.426 92.2927 369.556C91.9275 369.686 91.5033 369.721 91.0203 369.661C90.3189 369.575 89.7657 369.322 89.3606 368.903C88.9563 368.477 88.7693 367.923 88.7995 367.242L89.6729 367.349C89.6703 367.752 89.7925 368.096 90.0394 368.382C90.2863 368.667 90.6414 368.839 91.1045 368.896C91.5677 368.953 91.9331 368.877 92.2006 368.668C92.4756 368.453 92.6367 368.154 92.684 367.771C92.7451 367.274 92.6237 366.897 92.3198 366.637C92.0158 366.378 91.5297 366.208 90.8615 366.125L90.6332 366.097L90.7261 365.343L90.9643 365.372C91.5738 365.441 92.0459 365.398 92.3806 365.244C92.716 365.084 92.909 364.799 92.9595 364.389C93.0027 364.038 92.9216 363.743 92.7161 363.502C92.5172 363.263 92.206 363.117 91.7825 363.065C91.3723 363.014 91.0284 363.08 90.7509 363.26C90.4734 363.441 90.2895 363.707 90.1991 364.059L89.3158 363.95Z" fill="black"/>
<rect x="124.12" y="280.993" width="7" height="77" rx="3.5" transform="rotate(7.02303 124.12 280.993)" fill="#E4F5FF"/>
<path d="M123.692 284.467C123.928 282.548 125.675 281.185 127.594 281.421C129.512 281.657 130.876 283.404 130.639 285.323L128.485 302.814L121.537 301.958L123.692 284.467Z" fill="#085BD8"/>
<rect x="121.537" y="301.958" width="7" height="23.1681" transform="rotate(7.02303 121.537 301.958)" fill="#36397D"/>
<path opacity="0.2" d="M113.465 370.754L113.549 370.069L117.627 365.675L118.709 365.808L118.127 370.532L119.12 370.654L119.023 371.438L118.03 371.316L117.834 372.914L116.94 372.804L117.137 371.206L113.465 370.754ZM117.739 366.646L114.604 370.098L117.273 370.427L117.739 366.646Z" fill="black"/>
<rect x="147.832" y="292.982" width="7" height="68" rx="3.5" transform="rotate(7.02303 147.832 292.982)" fill="#E4F5FF"/>
<path d="M147.404 296.456C147.64 294.537 149.387 293.174 151.306 293.41C153.224 293.646 154.588 295.393 154.351 297.312L152.498 312.353L145.551 311.497L147.404 296.456Z" fill="#085BD8"/>
<rect x="145.551" y="311.497" width="7" height="20.4602" transform="rotate(7.02303 145.551 311.497)" fill="#36397D"/>
<path opacity="0.2" d="M143.662 369.607L140.178 369.178L139.899 371.441C140.078 371.248 140.324 371.104 140.638 371.008C140.953 370.906 141.282 370.876 141.626 370.918C142.175 370.986 142.608 371.157 142.923 371.431C143.24 371.698 143.448 372.022 143.549 372.404C143.657 372.78 143.686 373.17 143.637 373.574C143.578 374.05 143.436 374.466 143.211 374.821C142.986 375.176 142.675 375.44 142.277 375.613C141.886 375.786 141.42 375.84 140.877 375.773C140.182 375.687 139.642 375.439 139.256 375.029C138.87 374.619 138.667 374.11 138.648 373.503L139.531 373.612C139.571 374 139.716 374.317 139.968 374.563C140.22 374.809 140.558 374.958 140.981 375.01C141.504 375.074 141.917 374.967 142.22 374.689C142.523 374.404 142.707 374.003 142.771 373.487C142.834 372.971 142.751 372.558 142.52 372.247C142.291 371.93 141.918 371.74 141.402 371.676C141.051 371.633 140.733 371.681 140.447 371.821C140.169 371.954 139.952 372.159 139.797 372.436L138.943 372.331L139.442 368.281L143.76 368.813L143.662 369.607Z" fill="black"/>
<rect x="178.146" y="251.376" width="7" height="113" rx="3.5" transform="rotate(7.02303 178.146 251.376)" fill="#E4F5FF"/>
<path d="M177.719 254.85C177.955 252.932 179.702 251.568 181.62 251.804C183.539 252.041 184.902 253.788 184.666 255.706L181.304 283L174.356 282.144L177.719 254.85Z" fill="#085BD8"/>
<rect x="174.356" y="282.144" width="7" height="34" transform="rotate(7.02303 174.356 282.144)" fill="#36397D"/>
<path opacity="0.2" d="M167.785 373.516C167.73 372.764 167.322 372.34 166.561 372.247C165.972 372.174 165.504 372.348 165.157 372.769C164.81 373.183 164.576 373.91 164.455 374.949C164.649 374.624 164.934 374.387 165.308 374.238C165.69 374.084 166.099 374.034 166.536 374.087C167.217 374.171 167.734 374.45 168.085 374.923C168.443 375.397 168.576 376.008 168.484 376.756C168.429 377.206 168.29 377.598 168.067 377.934C167.851 378.27 167.551 378.522 167.168 378.689C166.791 378.858 166.351 378.911 165.848 378.849C165.167 378.765 164.653 378.547 164.307 378.196C163.96 377.844 163.744 377.391 163.658 376.836C163.572 376.282 163.577 375.61 163.674 374.823C163.973 372.395 164.97 371.285 166.664 371.494C167.312 371.574 167.8 371.812 168.127 372.208C168.455 372.604 168.618 373.074 168.619 373.619L167.785 373.516ZM166.253 374.828C165.968 374.793 165.693 374.82 165.427 374.908C165.162 374.99 164.935 375.14 164.747 375.358C164.566 375.571 164.455 375.846 164.413 376.184C164.351 376.687 164.447 377.115 164.699 377.468C164.951 377.815 165.349 378.022 165.892 378.089C166.355 378.146 166.74 378.049 167.046 377.798C167.36 377.541 167.547 377.167 167.607 376.678C167.671 376.162 167.588 375.742 167.359 375.418C167.131 375.088 166.762 374.891 166.253 374.828Z" fill="black"/>
<rect x="202.959" y="254.433" width="7" height="113" rx="3.5" transform="rotate(7.02303 202.959 254.433)" fill="#E4F5FF"/>
<path d="M202.531 257.907C202.767 255.989 204.514 254.625 206.432 254.861C208.351 255.098 209.715 256.844 209.478 258.763L206.116 286.057L199.168 285.201L202.531 257.907Z" fill="#085BD8"/>
<rect x="199.168" y="285.201" width="7" height="34" transform="rotate(7.02303 199.168 285.201)" fill="#36397D"/>
<path opacity="0.2" d="M192.597 376.573C192.542 375.82 192.134 375.397 191.373 375.304C190.784 375.231 190.316 375.405 189.969 375.826C189.622 376.24 189.388 376.967 189.267 378.006C189.461 377.681 189.746 377.444 190.12 377.295C190.502 377.141 190.911 377.091 191.348 377.144C192.029 377.228 192.546 377.507 192.897 377.98C193.255 378.454 193.388 379.065 193.296 379.813C193.241 380.262 193.102 380.655 192.879 380.99C192.663 381.327 192.363 381.578 191.98 381.746C191.603 381.915 191.163 381.968 190.661 381.906C189.979 381.822 189.465 381.604 189.119 381.253C188.773 380.901 188.556 380.448 188.47 379.893C188.384 379.338 188.39 378.667 188.487 377.88C188.786 375.452 189.782 374.342 191.476 374.551C192.124 374.63 192.612 374.869 192.94 375.265C193.267 375.661 193.431 376.131 193.431 376.675L192.597 376.573ZM191.065 377.885C190.781 377.85 190.505 377.877 190.239 377.965C189.974 378.046 189.747 378.197 189.559 378.415C189.378 378.628 189.267 378.903 189.226 379.241C189.164 379.743 189.259 380.172 189.511 380.525C189.764 380.872 190.161 381.079 190.704 381.146C191.167 381.203 191.552 381.106 191.858 380.855C192.172 380.598 192.359 380.224 192.419 379.735C192.483 379.219 192.4 378.799 192.171 378.475C191.943 378.145 191.575 377.948 191.065 377.885Z" fill="black"/>
<rect x="227.771" y="257.49" width="7" height="113" rx="3.5" transform="rotate(7.02303 227.771 257.49)" fill="#E4F5FF"/>
<path d="M227.343 260.964C227.58 259.045 229.326 257.682 231.245 257.918C233.163 258.154 234.527 259.901 234.291 261.82L230.928 289.113L223.981 288.257L227.343 260.964Z" fill="#085BD8"/>
<rect x="223.981" y="288.257" width="7" height="34" transform="rotate(7.02303 223.981 288.257)" fill="#36397D"/>
<path opacity="0.2" d="M217.41 379.629C217.355 378.877 216.947 378.454 216.186 378.36C215.597 378.288 215.129 378.462 214.781 378.882C214.435 379.297 214.201 380.023 214.079 381.063C214.274 380.738 214.558 380.501 214.933 380.352C215.315 380.198 215.724 380.147 216.16 380.201C216.842 380.285 217.358 380.563 217.71 381.037C218.068 381.511 218.201 382.122 218.109 382.869C218.053 383.319 217.914 383.712 217.692 384.047C217.476 384.383 217.176 384.635 216.793 384.803C216.416 384.971 215.976 385.025 215.473 384.963C214.792 384.879 214.278 384.661 213.931 384.309C213.585 383.958 213.369 383.504 213.283 382.95C213.197 382.395 213.202 381.724 213.299 380.937C213.598 378.508 214.595 377.398 216.289 377.607C216.937 377.687 217.425 377.925 217.752 378.321C218.079 378.718 218.243 379.188 218.243 379.732L217.41 379.629ZM215.878 380.942C215.593 380.907 215.318 380.933 215.052 381.022C214.786 381.103 214.56 381.253 214.372 381.472C214.191 381.685 214.08 381.96 214.038 382.297C213.976 382.8 214.071 383.228 214.323 383.582C214.576 383.929 214.974 384.135 215.516 384.202C215.98 384.259 216.364 384.162 216.671 383.911C216.984 383.654 217.171 383.281 217.232 382.791C217.295 382.275 217.213 381.855 216.984 381.532C216.756 381.201 216.387 381.005 215.878 380.942Z" fill="black"/>
<path opacity="0.2" d="M28.38 250.942L28.4612 250.283L29.9539 250.467L29.2467 256.207L28.5162 256.117L29.1422 251.036L28.38 250.942ZM30.8488 253.43C30.9609 252.52 31.1965 251.829 31.5555 251.357C31.9152 250.88 32.4656 250.687 33.2067 250.779C33.9424 250.869 34.4269 251.19 34.6601 251.74C34.8939 252.284 34.9547 253.012 34.8426 253.922C34.7285 254.849 34.4916 255.55 34.1319 256.027C33.7722 256.504 33.2245 256.697 32.4887 256.607C31.7476 256.515 31.2605 256.195 31.0273 255.645C30.7942 255.095 30.7346 254.357 30.8488 253.43ZM34.128 253.834C34.1847 253.374 34.2009 252.981 34.1765 252.655C34.158 252.325 34.0656 252.051 33.8992 251.831C33.738 251.613 33.4801 251.481 33.1255 251.438C32.7655 251.393 32.4782 251.457 32.2635 251.63C32.0541 251.803 31.8978 252.047 31.7945 252.362C31.6971 252.672 31.6201 253.058 31.5634 253.518C31.5047 253.995 31.4846 254.398 31.503 254.728C31.5267 255.059 31.6192 255.333 31.7803 255.552C31.9468 255.771 32.2099 255.903 32.5699 255.948C32.9245 255.991 33.2066 255.927 33.416 255.754C33.6306 255.581 33.787 255.337 33.885 255.021C33.9883 254.706 34.0693 254.311 34.128 253.834ZM35.8345 254.044C35.9467 253.134 36.1823 252.443 36.5413 251.971C36.901 251.494 37.4513 251.302 38.1924 251.393C38.9282 251.483 39.4126 251.804 39.6458 252.354C39.8796 252.898 39.9405 253.626 39.8283 254.536C39.7142 255.463 39.4773 256.164 39.1176 256.641C38.7579 257.118 38.2102 257.311 37.4744 257.221C36.7334 257.129 36.2463 256.809 36.0131 256.259C35.7799 255.709 35.7204 254.971 35.8345 254.044ZM39.1137 254.448C39.1705 253.988 39.1866 253.595 39.1622 253.269C39.1438 252.939 39.0513 252.665 38.8849 252.445C38.7238 252.227 38.4659 252.096 38.1112 252.052C37.7513 252.008 37.464 252.072 37.2493 252.244C37.0399 252.417 36.8835 252.661 36.7802 252.976C36.6829 253.286 36.6058 253.672 36.5491 254.132C36.4904 254.609 36.4703 255.012 36.4887 255.342C36.5125 255.673 36.6049 255.948 36.7661 256.166C36.9325 256.386 37.1957 256.517 37.5556 256.562C37.9103 256.605 38.1923 256.541 38.4017 256.368C38.6164 256.195 38.7727 255.951 38.8707 255.636C38.974 255.321 39.055 254.925 39.1137 254.448Z" fill="black"/>
<path opacity="0.2" d="M28.6889 280.167L25.902 279.823L25.679 281.634C25.8216 281.479 26.0185 281.364 26.2697 281.287C26.5216 281.206 26.7852 281.182 27.0605 281.216C27.4998 281.27 27.8457 281.406 28.0981 281.626C28.3512 281.839 28.518 282.099 28.5986 282.405C28.6852 282.705 28.7085 283.017 28.6688 283.34C28.6218 283.721 28.5083 284.054 28.3282 284.338C28.1481 284.622 27.8991 284.833 27.5811 284.971C27.2685 285.11 26.8951 285.153 26.4611 285.099C25.9053 285.031 25.473 284.833 25.1641 284.504C24.8553 284.176 24.6931 283.769 24.6777 283.284L25.3844 283.371C25.416 283.681 25.5326 283.934 25.734 284.131C25.9355 284.328 26.2056 284.447 26.5443 284.489C26.9625 284.541 27.2928 284.455 27.5352 284.232C27.7782 284.004 27.9252 283.684 27.976 283.271C28.0269 282.858 27.9601 282.527 27.7758 282.279C27.5921 282.025 27.2938 281.873 26.8809 281.822C26.6004 281.788 26.3458 281.826 26.1171 281.938C25.8944 282.045 25.721 282.209 25.597 282.43L24.9142 282.346L25.3133 279.106L28.7672 279.532L28.6889 280.167ZM29.7453 282.514C29.8575 281.603 30.0931 280.912 30.4521 280.44C30.8118 279.964 31.3622 279.771 32.1032 279.862C32.839 279.953 33.3235 280.273 33.5566 280.823C33.7905 281.368 33.8513 282.095 33.7391 283.006C33.625 283.932 33.3881 284.634 33.0285 285.11C32.6688 285.587 32.121 285.781 31.3853 285.69C30.6442 285.599 30.1571 285.278 29.9239 284.728C29.6907 284.178 29.6312 283.44 29.7453 282.514ZM33.0245 282.918C33.0813 282.457 33.0974 282.064 33.0731 281.739C33.0546 281.409 32.9622 281.134 32.7957 280.915C32.6346 280.696 32.3767 280.565 32.022 280.521C31.6621 280.477 31.3748 280.541 31.1601 280.713C30.9507 280.886 30.7944 281.13 30.6911 281.445C30.5937 281.756 30.5167 282.141 30.4599 282.602C30.4012 283.078 30.3811 283.481 30.3996 283.811C30.4233 284.142 30.5158 284.417 30.6769 284.635C30.8433 284.855 31.1065 284.987 31.4665 285.031C31.8211 285.075 32.1031 285.01 32.3125 284.837C32.5272 284.665 32.6836 284.42 32.7816 284.105C32.8849 283.79 32.9659 283.394 33.0245 282.918Z" fill="black"/>
<path opacity="0.2" d="M20.8358 312.312L20.9033 311.764L24.1656 308.248L25.0311 308.355L24.5655 312.135L25.3595 312.232L25.2822 312.86L24.4882 312.762L24.3307 314.04L23.6161 313.952L23.7736 312.674L20.8358 312.312ZM24.2553 309.025L21.7468 311.787L23.8826 312.05L24.2553 309.025ZM26.2074 311.297C26.3196 310.387 26.5552 309.696 26.9142 309.224C27.2739 308.747 27.8243 308.554 28.5653 308.645C29.3011 308.736 29.7856 309.056 30.0187 309.606C30.2526 310.151 30.3134 310.879 30.2012 311.789C30.0871 312.715 29.8502 313.417 29.4906 313.894C29.1309 314.371 28.5831 314.564 27.8474 314.473C27.1063 314.382 26.6192 314.061 26.386 313.511C26.1528 312.961 26.0933 312.223 26.2074 311.297ZM29.4866 311.701C29.5434 311.24 29.5595 310.848 29.5352 310.522C29.5167 310.192 29.4243 309.917 29.2578 309.698C29.0967 309.479 28.8388 309.348 28.4841 309.304C28.1242 309.26 27.8369 309.324 27.6222 309.496C27.4128 309.67 27.2565 309.914 27.1532 310.229C27.0558 310.539 26.9788 310.925 26.922 311.385C26.8633 311.861 26.8432 312.265 26.8617 312.595C26.8854 312.925 26.9779 313.2 27.139 313.419C27.3054 313.638 27.5686 313.77 27.9286 313.814C28.2832 313.858 28.5652 313.793 28.7746 313.62C28.9893 313.448 29.1457 313.204 29.2437 312.888C29.347 312.573 29.428 312.177 29.4866 311.701Z" fill="black"/>
<path opacity="0.2" d="M17.8204 338.096C17.9174 337.614 18.1523 337.256 18.525 337.023C18.8977 336.789 19.354 336.706 19.8939 336.772C20.2538 336.816 20.5553 336.921 20.7984 337.085C21.0474 337.245 21.2244 337.444 21.3294 337.682C21.4396 337.922 21.4774 338.182 21.4429 338.462C21.4024 338.79 21.2723 339.062 21.0524 339.276C20.8378 339.492 20.5754 339.615 20.2652 339.647L20.2603 339.687C20.5939 339.814 20.846 340.014 21.0165 340.288C21.187 340.561 21.2474 340.899 21.1979 341.301C21.1607 341.603 21.0583 341.867 20.8907 342.094C20.7237 342.315 20.4941 342.478 20.2019 342.581C19.9097 342.685 19.5704 342.713 19.184 342.665C18.6229 342.596 18.1803 342.394 17.8562 342.059C17.5328 341.718 17.3832 341.275 17.4073 340.73L18.1061 340.816C18.104 341.138 18.2017 341.413 18.3993 341.642C18.5968 341.87 18.8808 342.007 19.2514 342.053C19.6219 342.099 19.9142 342.038 20.1282 341.871C20.3482 341.699 20.4771 341.46 20.5149 341.153C20.5638 340.756 20.4667 340.454 20.2236 340.246C19.9804 340.039 19.5915 339.903 19.0569 339.837L18.8743 339.814L18.9486 339.211L19.1392 339.234C19.6268 339.289 20.0045 339.255 20.2722 339.132C20.5405 339.004 20.6949 338.776 20.7353 338.447C20.7699 338.167 20.705 337.931 20.5406 337.738C20.3815 337.547 20.1325 337.43 19.7938 337.388C19.4656 337.348 19.1905 337.4 18.9685 337.545C18.7465 337.689 18.5993 337.902 18.5271 338.184L17.8204 338.096ZM22.3436 340.04C22.4558 339.13 22.6914 338.439 23.0504 337.967C23.4101 337.49 23.9605 337.297 24.7015 337.388C25.4373 337.479 25.9218 337.799 26.1549 338.349C26.3888 338.894 26.4496 339.622 26.3374 340.532C26.2233 341.458 25.9864 342.16 25.6267 342.637C25.2671 343.114 24.7193 343.307 23.9836 343.216C23.2425 343.125 22.7554 342.804 22.5222 342.255C22.289 341.705 22.2295 340.966 22.3436 340.04ZM25.6228 340.444C25.6796 339.984 25.6957 339.591 25.6713 339.265C25.6529 338.935 25.5605 338.66 25.394 338.441C25.2329 338.222 24.975 338.091 24.6203 338.047C24.2604 338.003 23.9731 338.067 23.7584 338.24C23.549 338.413 23.3927 338.657 23.2894 338.972C23.192 339.282 23.115 339.668 23.0582 340.128C22.9995 340.605 22.9794 341.008 22.9979 341.338C23.0216 341.669 23.114 341.943 23.2752 342.162C23.4416 342.381 23.7048 342.513 24.0648 342.557C24.4194 342.601 24.7014 342.536 24.9108 342.363C25.1255 342.191 25.2819 341.947 25.3799 341.631C25.4832 341.316 25.5642 340.92 25.6228 340.444Z" fill="black"/>
<circle cx="57.106" cy="216.981" r="3.66207" transform="rotate(7.02303 57.106 216.981)" fill="#085BD8"/>
<rect x="64.8228" y="214.242" width="29.2966" height="7.32414" rx="3.66207" transform="rotate(7.02303 64.8228 214.242)" fill="#F6F6F6"/>
<circle cx="104.356" cy="222.802" r="3.66207" transform="rotate(7.02303 104.356 222.802)" fill="#36397D"/>
<rect x="112.073" y="220.063" width="29.2966" height="7.32414" rx="3.66207" transform="rotate(7.02303 112.073 220.063)" fill="#F6F6F6"/>
<circle cx="151.606" cy="228.623" r="3.66207" transform="rotate(7.02303 151.606 228.623)" fill="#E4F5FF"/>
<rect x="159.323" y="225.884" width="29.2966" height="7.32414" rx="3.66207" transform="rotate(7.02303 159.323 225.884)" fill="#F6F6F6"/>
<path d="M252 320.815C252 317.051 255.054 314 258.82 314H278.429C282.196 314 285.25 317.051 285.25 320.815V340.407C285.25 344.17 282.196 347.222 278.429 347.222H258.82C255.054 347.222 252 344.17 252 340.407V320.815Z" fill="#1ABCFE"/>
<path fill-rule="evenodd" clip-rule="evenodd" d="M271.554 326.531L268.854 322.403H260.755V340.292H276.953V326.531H271.554ZM274.822 328.661H270.401L267.701 324.533H262.886V338.162H274.822V328.661Z" fill="white"/>
<path d="M411 197.815C411 194.051 414.054 191 417.82 191H437.429C441.196 191 444.25 194.051 444.25 197.815V217.407C444.25 221.17 441.196 224.221 437.429 224.221H417.82C414.054 224.221 411 221.17 411 217.407V197.815Z" fill="#1FD948"/>
<path d="M422.728 214L416.967 207.597L422.728 201.222H425.477L419.692 207.597L425.477 214H422.728Z" fill="white"/>
<path d="M429.748 201.222H432.497L438.281 207.597L432.497 214H429.748L435.532 207.597L429.748 201.222Z" fill="white"/>
<path d="M390 326.815C390 323.051 393.054 320 396.82 320H416.429C420.196 320 423.25 323.051 423.25 326.815V346.407C423.25 350.17 420.196 353.221 416.429 353.221H396.82C393.054 353.221 390 350.17 390 346.407V326.815Z" fill="#085BD8"/>
<path d="M398.527 335.751C399.907 335.495 400.596 334.785 400.596 333.623C400.596 333.11 400.529 332.232 400.393 330.989C400.258 329.665 400.191 328.705 400.191 328.111C400.191 327.138 400.461 326.395 401.002 325.881C401.556 325.368 402.293 325.111 403.213 325.111H404.389V326.712H403.558C403.03 326.712 402.638 326.834 402.381 327.077C402.124 327.307 401.996 327.692 401.996 328.232C401.996 328.624 402.023 329.111 402.077 329.692C402.131 330.259 402.165 330.644 402.178 330.847C402.314 332.144 402.381 333.09 402.381 333.684C402.381 334.4 402.199 335.001 401.834 335.488C401.482 335.961 400.934 336.278 400.191 336.44V336.481C400.934 336.643 401.482 336.967 401.834 337.454C402.199 337.94 402.381 338.541 402.381 339.258C402.381 339.852 402.314 340.798 402.178 342.095C402.165 342.298 402.131 342.689 402.077 343.27C402.023 343.838 401.996 344.317 401.996 344.709C401.996 345.25 402.124 345.635 402.381 345.864C402.638 346.108 403.03 346.229 403.558 346.229H404.389V347.83H403.213C402.293 347.83 401.556 347.574 401.002 347.06C400.461 346.547 400.191 345.804 400.191 344.831C400.191 344.236 400.258 343.277 400.393 341.953C400.529 340.71 400.596 339.832 400.596 339.318C400.596 338.156 399.907 337.447 398.527 337.19V335.751Z" fill="white"/>
<path d="M414.972 337.19C413.593 337.447 412.903 338.156 412.903 339.318C412.903 339.832 412.971 340.71 413.106 341.953C413.241 343.277 413.309 344.236 413.309 344.831C413.309 345.804 413.031 346.547 412.477 347.06C411.936 347.574 411.206 347.83 410.286 347.83H409.11V346.229H409.941C410.469 346.229 410.861 346.108 411.118 345.864C411.375 345.635 411.503 345.25 411.503 344.709C411.503 344.317 411.476 343.838 411.422 343.27C411.368 342.689 411.334 342.298 411.321 342.095C411.186 340.798 411.118 339.852 411.118 339.258C411.118 338.541 411.294 337.94 411.645 337.454C412.01 336.967 412.565 336.643 413.309 336.481V336.44C412.565 336.278 412.01 335.961 411.645 335.488C411.294 335.001 411.118 334.4 411.118 333.684C411.118 333.09 411.186 332.144 411.321 330.847C411.334 330.644 411.368 330.259 411.422 329.692C411.476 329.111 411.503 328.624 411.503 328.232C411.503 327.692 411.375 327.307 411.118 327.077C410.861 326.834 410.469 326.712 409.941 326.712H409.11V325.111H410.286C411.206 325.111 411.936 325.368 412.477 325.881C413.031 326.395 413.309 327.138 413.309 328.111C413.309 328.705 413.241 329.665 413.106 330.989C412.971 332.232 412.903 333.11 412.903 333.623C412.903 334.785 413.593 335.495 414.972 335.751V337.19Z" fill="white"/>
<path opacity="0.2" fill-rule="evenodd" clip-rule="evenodd" d="M35.4998 158.997C31.3593 158.997 28.0027 155.64 28.0027 151.5C28.0027 147.36 31.3593 144.003 35.4998 144.003C39.6403 144.003 42.9968 147.36 42.9968 151.5C42.9968 155.64 39.6403 158.997 35.4998 158.997ZM57.9998 154.891V148.109L52.654 146.75C52.262 145.331 51.6987 143.983 50.9875 142.73L53.8076 137.988L49.0116 133.192L44.27 136.012C43.0166 135.301 41.6686 134.738 40.2494 134.346L38.8911 129H32.1084L30.7501 134.346C29.3308 134.738 27.9828 135.301 26.7295 136.012L21.9879 133.192L17.1918 137.988L20.0119 142.73C19.3008 143.983 18.7375 145.331 18.3454 146.75L12.9998 148.109V154.891L18.3454 156.25C18.7375 157.669 19.3008 159.017 20.0119 160.27L17.1918 165.012L21.9879 169.808L26.7295 166.988C27.9828 167.699 29.3308 168.262 30.7501 168.654L32.1084 174H38.8911L40.2494 168.654C41.6686 168.262 43.0166 167.699 44.27 166.988L49.0116 169.808L53.8076 165.012L50.9875 160.27C51.6987 159.017 52.262 157.669 52.654 156.25L57.9998 154.891Z" fill="#32447E"/>
<g filter="url(#filter1_d_66_5598)">
<rect x="227.758" y="110.385" width="173.338" height="177" rx="6.10345" transform="rotate(7.02303 227.758 110.385)" fill="white"/>
</g>
<path d="M356.582 208.451C357.881 197.908 356.024 187.216 351.246 177.728C346.469 168.24 338.985 160.382 329.741 155.147C320.498 149.913 309.91 147.536 299.316 148.319C288.722 149.102 278.598 153.009 270.224 159.546L303.274 201.884L356.582 208.451Z" fill="#085BD8"/>
<path d="M270.224 159.546C263.173 165.05 257.609 172.228 254.035 180.429C250.462 188.629 248.994 197.592 249.763 206.504C250.533 215.415 253.516 223.994 258.441 231.461C263.367 238.927 270.08 245.045 277.97 249.259L303.274 201.884L270.224 159.546Z" fill="#E4F5FF"/>
<path d="M278.137 249.349C285.91 253.465 294.574 255.61 303.37 255.594C312.165 255.578 320.822 253.403 328.58 249.259C336.338 245.116 342.959 239.13 347.863 231.828C352.766 224.527 355.802 216.133 356.702 207.384L303.274 201.884L278.137 249.349Z" fill="#36397D"/>
<rect x="248.782" y="125.065" width="61.0345" height="7.32414" rx="3.66207" transform="rotate(7.02303 248.782 125.065)" fill="#EAEAEA"/>
<circle cx="230.574" cy="272.872" r="3.66207" transform="rotate(7.02303 230.574 272.872)" fill="#085BD8"/>
<rect x="238.291" y="270.133" width="29.2966" height="7.32414" rx="3.66207" transform="rotate(7.02303 238.291 270.133)" fill="#F6F6F6"/>
<circle cx="277.824" cy="278.693" r="3.66207" transform="rotate(7.02303 277.824 278.693)" fill="#36397D"/>
<rect x="285.541" y="275.954" width="29.2966" height="7.32414" rx="3.66207" transform="rotate(7.02303 285.541 275.954)" fill="#F6F6F6"/>
<circle cx="325.073" cy="284.514" r="3.66207" transform="rotate(7.02303 325.073 284.514)" fill="#E4F5FF"/>
<rect x="332.791" y="281.775" width="29.2966" height="7.32414" rx="3.66207" transform="rotate(7.02303 332.791 281.775)" fill="#F6F6F6"/>
<defs>
<filter id="filter0_d_66_5598" x="53.899" y="72.7371" width="181.894" height="137.488" filterUnits="userSpaceOnUse" color-interpolation-filters="sRGB">
<feFlood flood-opacity="0" result="BackgroundImageFix"/>
<feColorMatrix in="SourceAlpha" type="matrix" values="0 0 0 0 0 0 0 0 0 0 0 0 0 0 0 0 0 0 127 0" result="hardAlpha"/>
<feOffset/>
<feGaussianBlur stdDeviation="11.9429"/>
<feComposite in2="hardAlpha" operator="out"/>
<feColorMatrix type="matrix" values="0 0 0 0 0.845833 0 0 0 0 0.845833 0 0 0 0 0.845833 0 0 0 0.25 0"/>
<feBlend mode="normal" in2="BackgroundImageFix" result="effect1_dropShadow_66_5598"/>
<feBlend mode="normal" in="SourceGraphic" in2="effect1_dropShadow_66_5598" result="shape"/>
</filter>
<filter id="filter1_d_66_5598" x="95.7334" y="0.00171661" width="414.445" height="417.631" filterUnits="userSpaceOnUse" color-interpolation-filters="sRGB">
<feFlood flood-opacity="0" result="BackgroundImageFix"/>
<feColorMatrix in="SourceAlpha" type="matrix" values="0 0 0 0 0 0 0 0 0 0 0 0 0 0 0 0 0 0 127 0" result="hardAlpha"/>
<feOffset/>
<feGaussianBlur stdDeviation="55.5414"/>
<feComposite in2="hardAlpha" operator="out"/>
<feColorMatrix type="matrix" values="0 0 0 0 0.670588 0 0 0 0 0.670588 0 0 0 0 0.670588 0 0 0 0.25 0"/>
<feBlend mode="normal" in2="BackgroundImageFix" result="effect1_dropShadow_66_5598"/>
<feBlend mode="normal" in="SourceGraphic" in2="effect1_dropShadow_66_5598" result="shape"/>
</filter>
</defs>
</svg>
