<svg width="197" height="136" viewBox="0 0 197 136" fill="none" xmlns="http://www.w3.org/2000/svg">
<path d="M0 11.6253C0 5.60637 4.8821 0.727051 10.9045 0.727051H185.376C191.398 0.727051 196.281 5.60637 196.281 11.6253V124.241C196.281 130.26 191.398 135.139 185.376 135.139H10.9045C4.88211 135.139 0 130.26 0 124.241V11.6253Z" fill="url(#paint0_linear_483_799)"/>
<path fill-rule="evenodd" clip-rule="evenodd" d="M185.376 2.54343H10.9045C5.88583 2.54343 1.81741 6.60953 1.81741 11.6253V124.241C1.81741 129.256 5.88583 133.323 10.9045 133.323H185.376C190.395 133.323 194.463 129.256 194.463 124.241V11.6253C194.463 6.60953 190.395 2.54343 185.376 2.54343ZM10.9045 0.727051C4.8821 0.727051 0 5.60637 0 11.6253V124.241C0 130.26 4.88211 135.139 10.9045 135.139H185.376C191.398 135.139 196.281 130.26 196.281 124.241V11.6253C196.281 5.60637 191.398 0.727051 185.376 0.727051H10.9045Z" fill="url(#paint1_linear_483_799)"/>
<path d="M21.8094 36.1465C21.8094 33.137 24.2504 30.6974 27.2616 30.6974H78.1492C81.1604 30.6974 83.6014 33.137 83.6014 36.1465V94.2706C83.6014 97.2801 81.1604 99.7197 78.1492 99.7197H27.2616C24.2504 99.7197 21.8094 97.2801 21.8094 94.2706V36.1465Z" fill="white" fill-opacity="0.17"/>
<path d="M95.413 35.6924C95.413 32.9337 97.6507 30.6974 100.411 30.6974H164.929C167.689 30.6974 169.927 32.9337 169.927 35.6924V35.6924C169.927 38.4511 167.689 40.6875 164.929 40.6875H100.411C97.6507 40.6875 95.413 38.4511 95.413 35.6924V35.6924Z" fill="white" fill-opacity="0.6"/>
<path d="M95.413 54.7644C95.413 52.0058 97.6507 49.7694 100.411 49.7694H164.929C167.689 49.7694 169.927 52.0058 169.927 54.7644V54.7644C169.927 57.5231 167.689 59.7595 164.929 59.7595H100.411C97.6507 59.7595 95.413 57.5231 95.413 54.7644V54.7644Z" fill="white" fill-opacity="0.26"/>
<path d="M95.413 86.5505C95.413 77.2713 102.94 69.749 112.224 69.749H113.133C122.417 69.749 129.944 77.2713 129.944 86.5505V86.5505C129.944 95.8297 122.417 103.352 113.133 103.352H112.224C102.94 103.352 95.413 95.8297 95.413 86.5505V86.5505Z" fill="#4F6092"/>
<path d="M48.8253 63.9759C47.1355 61.7731 43.7706 61.9194 42.2784 64.2605L30.166 83.2639C28.4688 85.9266 30.3814 89.4138 33.5391 89.4138H72.0187C75.2852 89.4138 77.1745 85.7103 75.2571 83.0658L68.3688 73.5656C66.8877 71.5229 63.9084 71.345 62.1947 73.1969L61.9742 73.4351C60.2903 75.2547 57.3736 75.12 55.8646 73.1528L48.8253 63.9759Z" fill="white"/>
<path d="M72.4874 50.9208C72.4874 54.1811 69.843 56.8241 66.5808 56.8241C63.3187 56.8241 60.6743 54.1811 60.6743 50.9208C60.6743 47.6605 63.3187 45.0176 66.5808 45.0176C69.843 45.0176 72.4874 47.6605 72.4874 50.9208Z" fill="#C4C5DC"/>
<path d="M136.305 76.5637C136.305 72.8001 139.359 69.749 143.126 69.749H162.734C166.501 69.749 169.555 72.8001 169.555 76.5637V96.1558C169.555 99.9195 166.501 102.971 162.734 102.971H143.126C139.359 102.971 136.305 99.9195 136.305 96.1558V76.5637Z" fill="#4F6092"/>
<path fill-rule="evenodd" clip-rule="evenodd" d="M156.239 95.8878H150.095V93.3323H156.239V95.8878Z" fill="white"/>
<path fill-rule="evenodd" clip-rule="evenodd" d="M144.405 78.6935H161.456V82.8045H158.898V81.249H146.963V82.8045H144.405V78.6935Z" fill="white"/>
<path fill-rule="evenodd" clip-rule="evenodd" d="M151.811 94.7533L151.969 80.1147L154.526 80.1422L154.368 94.7808L151.811 94.7533Z" fill="white"/>
<defs>
<linearGradient id="paint0_linear_483_799" x1="42.4166" y1="36.8191" x2="282.698" y2="349.841" gradientUnits="userSpaceOnUse">
<stop stop-color="#253D7A"/>
<stop offset="1" stop-color="#5A5B8B"/>
</linearGradient>
<linearGradient id="paint1_linear_483_799" x1="98.1403" y1="0.727053" x2="181.608" y2="342.638" gradientUnits="userSpaceOnUse">
<stop stop-color="white" stop-opacity="0.17"/>
<stop offset="1" stop-opacity="0"/>
</linearGradient>
</defs>
</svg>
