<svg width="175" height="136" viewBox="0 0 175 136" fill="none" xmlns="http://www.w3.org/2000/svg">
<path d="M0.528351 11.5262C0.528351 5.50725 5.41045 0.62793 11.4328 0.62793H164.096C170.118 0.62793 175 5.50725 175 11.5262V124.142C175 130.16 170.118 135.04 164.096 135.04H11.4328C5.41045 135.04 0.528351 130.16 0.528351 124.142V11.5262Z" fill="url(#paint0_linear_483_800)"/>
<path fill-rule="evenodd" clip-rule="evenodd" d="M164.096 2.44431H11.4328C6.41418 2.44431 2.34576 6.51041 2.34576 11.5262V124.142C2.34576 129.157 6.41418 133.223 11.4328 133.223H164.096C169.114 133.223 173.183 129.157 173.183 124.142V11.5262C173.183 6.5104 169.114 2.44431 164.096 2.44431ZM11.4328 0.62793C5.41045 0.62793 0.528351 5.50725 0.528351 11.5262V124.142C0.528351 130.16 5.41045 135.04 11.4328 135.04H164.096C170.118 135.04 175 130.16 175 124.142V11.5262C175 5.50725 170.118 0.62793 164.096 0.62793H11.4328Z" fill="url(#paint1_linear_483_800)"/>
<path d="M16.6821 22.424C16.6821 20.4177 18.3094 18.7913 20.3169 18.7913H155.209C157.217 18.7913 158.844 20.4177 158.844 22.424V22.424C158.844 24.4303 157.217 26.0568 155.209 26.0568H20.3169C18.3094 26.0568 16.6821 24.4303 16.6821 22.424V22.424Z" fill="url(#paint2_linear_483_800)"/>
<path d="M16.6821 40.5881C16.6821 38.5818 18.3094 36.9554 20.3169 36.9554H63.9348C65.9423 36.9554 67.5696 38.5818 67.5696 40.5881V40.5881C67.5696 42.5944 65.9423 44.2209 63.9348 44.2209H20.3169C18.3094 44.2209 16.6821 42.5944 16.6821 40.5881V40.5881Z" fill="url(#paint3_linear_483_800)"/>
<path d="M74.0311 40.5881C74.0311 38.5818 75.6584 36.9554 77.6659 36.9554H94.6284C96.6358 36.9554 98.2632 38.5818 98.2632 40.5881V40.5881C98.2632 42.5944 96.6358 44.2209 94.6284 44.2209H77.6659C75.6584 44.2209 74.0311 42.5944 74.0311 40.5881V40.5881Z" fill="url(#paint4_linear_483_800)"/>
<path d="M16.6821 113.244C16.6821 111.237 18.3094 109.611 20.3169 109.611H63.9348C65.9423 109.611 67.5696 111.237 67.5696 113.244V113.244C67.5696 115.25 65.9423 116.876 63.9348 116.876H20.3169C18.3094 116.876 16.6821 115.25 16.6821 113.244V113.244Z" fill="url(#paint5_linear_483_800)"/>
<path d="M74.0311 113.244C74.0311 111.237 75.6584 109.611 77.6659 109.611H94.6284C96.6358 109.611 98.2632 111.237 98.2632 113.244V113.244C98.2632 115.25 96.6358 116.876 94.6284 116.876H77.6659C75.6584 116.876 74.0311 115.25 74.0311 113.244V113.244Z" fill="url(#paint6_linear_483_800)"/>
<path d="M45.7613 76.9159C45.7613 74.9096 47.3887 73.2832 49.3961 73.2832H61.5122C63.5197 73.2832 65.147 74.9096 65.147 76.9159V76.9159C65.147 78.9222 63.5197 80.5487 61.5122 80.5487H49.3961C47.3887 80.5487 45.7613 78.9222 45.7613 76.9159V76.9159Z" fill="url(#paint7_linear_483_800)"/>
<path d="M72.4169 76.9159C72.4169 74.9096 74.0442 73.2832 76.0517 73.2832H127.747C129.755 73.2832 131.382 74.9096 131.382 76.9159V76.9159C131.382 78.9222 129.755 80.5487 127.747 80.5487H76.0517C74.0442 80.5487 72.4169 78.9222 72.4169 76.9159V76.9159Z" fill="url(#paint8_linear_483_800)"/>
<path d="M16.6821 76.9159C16.6821 74.9096 18.3094 73.2832 20.3169 73.2832H37.2794C39.2869 73.2832 40.9142 74.9096 40.9142 76.9159V76.9159C40.9142 78.9222 39.2869 80.5487 37.2794 80.5487H20.3169C18.3094 80.5487 16.6821 78.9222 16.6821 76.9159V76.9159Z" fill="url(#paint9_linear_483_800)"/>
<path d="M16.6821 58.7516C16.6821 56.7453 18.3094 55.1188 20.3169 55.1188H79.2819C81.2893 55.1188 82.9167 56.7453 82.9167 58.7516V58.7516C82.9167 60.7579 81.2893 62.3843 79.2819 62.3843H20.3169C18.3094 62.3843 16.6821 60.7579 16.6821 58.7516V58.7516Z" fill="url(#paint10_linear_483_800)"/>
<path d="M88.5715 58.7516C88.5715 56.7453 90.1989 55.1188 92.2064 55.1188H119.67C121.677 55.1188 123.304 56.7453 123.304 58.7516V58.7516C123.304 60.7579 121.677 62.3843 119.67 62.3843H92.2064C90.1989 62.3843 88.5715 60.7579 88.5715 58.7516V58.7516Z" fill="url(#paint11_linear_483_800)"/>
<path d="M16.6821 95.0793C16.6821 93.073 18.3094 91.4465 20.3169 91.4465H79.2819C81.2893 91.4465 82.9167 93.073 82.9167 95.0793V95.0793C82.9167 97.0856 81.2893 98.712 79.2819 98.712H20.3169C18.3094 98.712 16.6821 97.0856 16.6821 95.0793V95.0793Z" fill="url(#paint12_linear_483_800)"/>
<defs>
<linearGradient id="paint0_linear_483_800" x1="336.904" y1="352.007" x2="-140.864" y2="-81.986" gradientUnits="userSpaceOnUse">
<stop stop-color="#40416E"/>
<stop offset="1" stop-color="#253D7A"/>
</linearGradient>
<linearGradient id="paint1_linear_483_800" x1="87.7642" y1="0.627932" x2="180.283" y2="337.506" gradientUnits="userSpaceOnUse">
<stop stop-color="white" stop-opacity="0.17"/>
<stop offset="1" stop-opacity="0"/>
</linearGradient>
<linearGradient id="paint2_linear_483_800" x1="87.7631" y1="18.7913" x2="96.692" y2="62.7811" gradientUnits="userSpaceOnUse">
<stop stop-color="white" stop-opacity="0.56"/>
<stop offset="1" stop-color="#C4C4C4" stop-opacity="0"/>
</linearGradient>
<linearGradient id="paint3_linear_483_800" x1="42.1259" y1="36.9554" x2="61.7785" y2="71.6137" gradientUnits="userSpaceOnUse">
<stop stop-color="#F9C746" stop-opacity="0.52"/>
<stop offset="1" stop-color="#C4C4C4" stop-opacity="0"/>
</linearGradient>
<linearGradient id="paint4_linear_483_800" x1="86.1471" y1="36.9554" x2="108.703" y2="55.8978" gradientUnits="userSpaceOnUse">
<stop stop-color="#84EBE5" stop-opacity="0.62"/>
<stop offset="1" stop-color="#C4C4C4" stop-opacity="0"/>
</linearGradient>
<linearGradient id="paint5_linear_483_800" x1="42.1259" y1="109.611" x2="61.7785" y2="144.269" gradientUnits="userSpaceOnUse">
<stop stop-color="white" stop-opacity="0.56"/>
<stop offset="1" stop-color="#C4C4C4" stop-opacity="0"/>
</linearGradient>
<linearGradient id="paint6_linear_483_800" x1="86.1471" y1="109.611" x2="108.703" y2="128.553" gradientUnits="userSpaceOnUse">
<stop stop-color="#F47D9E"/>
<stop offset="1" stop-color="#C4C4C4" stop-opacity="0"/>
</linearGradient>
<linearGradient id="paint7_linear_483_800" x1="55.4542" y1="73.2832" x2="76.6558" y2="87.5271" gradientUnits="userSpaceOnUse">
<stop stop-color="#F2C87D"/>
<stop offset="1" stop-color="#C4C4C4" stop-opacity="0"/>
</linearGradient>
<linearGradient id="paint8_linear_483_800" x1="101.899" y1="73.2832" x2="119.983" y2="110.236" gradientUnits="userSpaceOnUse">
<stop stop-color="white" stop-opacity="0.62"/>
<stop offset="1" stop-color="#C4C4C4" stop-opacity="0"/>
</linearGradient>
<linearGradient id="paint9_linear_483_800" x1="23.144" y1="71.4668" x2="60.3379" y2="76.7217" gradientUnits="userSpaceOnUse">
<stop stop-color="#F37D9D"/>
<stop offset="1" stop-color="#C4C4C4" stop-opacity="0"/>
</linearGradient>
<linearGradient id="paint10_linear_483_800" x1="49.7994" y1="55.1188" x2="66.5702" y2="93.6147" gradientUnits="userSpaceOnUse">
<stop stop-color="white" stop-opacity="0.58"/>
<stop offset="1" stop-color="#C4C4C4" stop-opacity="0"/>
</linearGradient>
<linearGradient id="paint11_linear_483_800" x1="105.938" y1="55.1188" x2="128.451" y2="82.2176" gradientUnits="userSpaceOnUse">
<stop stop-color="white" stop-opacity="0.45"/>
<stop offset="1" stop-color="#C4C4C4" stop-opacity="0"/>
</linearGradient>
<linearGradient id="paint12_linear_483_800" x1="49.7994" y1="91.4465" x2="66.5701" y2="129.942" gradientUnits="userSpaceOnUse">
<stop stop-color="#70D1E7"/>
<stop offset="1" stop-color="#C4C4C4" stop-opacity="0"/>
</linearGradient>
</defs>
</svg>
