<svg width="137" height="138" viewBox="0 0 137 138" fill="none" xmlns="http://www.w3.org/2000/svg">
<path fill-rule="evenodd" clip-rule="evenodd" d="M68.6309 91.4566C56.0494 91.4566 45.85 81.2571 45.85 68.6755C45.85 56.0939 56.0494 45.8944 68.6309 45.8944C81.2123 45.8944 91.4117 56.0939 91.4117 68.6755C91.4117 81.2571 81.2123 91.4566 68.6309 91.4566ZM137 78.9805V58.3702L120.756 54.2428C119.565 49.9301 117.853 45.8339 115.692 42.0257L124.262 27.6174L109.688 13.0437L95.2803 21.6134C91.4719 19.452 87.3757 17.7406 83.0633 16.5491L78.9358 0.305481H58.3257L54.1984 16.5491C49.8857 17.7406 45.7895 19.452 41.9814 21.6134L27.5733 13.0437L12.9997 27.6174L21.5691 42.0257C19.4083 45.8339 17.6965 49.9304 16.5051 54.2428L0.261688 58.3702V78.9805L16.5051 83.1081C17.6965 87.4206 19.4083 91.5168 21.5691 95.3252L12.9997 109.734L27.5733 124.307L41.9814 115.738C45.7895 117.899 49.8857 119.61 54.1984 120.802L58.3257 137.045H78.9358L83.0633 120.802C87.3757 119.61 91.4719 117.899 95.2803 115.738L109.688 124.307L124.262 109.734L115.692 95.3252C117.853 91.5168 119.565 87.4206 120.756 83.1081L137 78.9805Z" fill="#32447E"/>
</svg>
