<svg width="487" height="366" viewBox="0 0 487 366" fill="none" xmlns="http://www.w3.org/2000/svg">
<path fill-rule="evenodd" clip-rule="evenodd" d="M468.859 1.81638H18.1407C9.60903 1.81638 2.69272 8.72874 2.69272 17.2556V348.744C2.69272 357.271 9.60903 364.184 18.1407 364.184H468.859C477.391 364.184 484.307 357.271 484.307 348.744V17.2556C484.307 8.72875 477.391 1.81638 468.859 1.81638ZM18.1407 0C8.6053 0 0.875305 7.72558 0.875305 17.2556V348.744C0.875305 358.274 8.60529 366 18.1407 366H468.859C478.395 366 486.125 358.274 486.125 348.744V17.2556C486.125 7.72559 478.395 0 468.859 0H18.1407Z" fill="url(#paint0_linear_483_798)"/>
<path d="M1.12817 17.2556C1.12817 7.72558 8.85817 0 18.3936 0H469.112C478.648 0 486.378 7.72559 486.378 17.2556V348.744C486.378 358.274 478.648 366 469.112 366H18.3936C8.85817 366 1.12817 358.274 1.12817 348.744V17.2556Z" fill="url(#paint1_linear_483_798)"/>
<path d="M289.844 285.629C289.844 281.865 292.897 278.814 296.664 278.814H316.273C320.04 278.814 323.093 281.865 323.093 285.629V305.221C323.093 308.984 320.04 312.035 316.273 312.035H296.664C292.897 312.035 289.844 308.984 289.844 305.221V285.629Z" fill="#1FD948"/>
<path d="M301.571 301.814L295.811 295.411L301.571 289.036H304.32L298.536 295.411L304.32 301.814H301.571Z" fill="white"/>
<path d="M308.591 289.036H311.34L317.125 295.411L311.34 301.814H308.591L314.376 295.411L308.591 289.036Z" fill="white"/>
<path d="M181.707 104.899C181.707 101.136 184.761 98.0845 188.527 98.0845H208.136C211.903 98.0845 214.957 101.136 214.957 104.899V124.491C214.957 128.255 211.903 131.306 208.136 131.306H188.527C184.761 131.306 181.707 128.255 181.707 124.491V104.899Z" fill="#1ABCFE"/>
<path fill-rule="evenodd" clip-rule="evenodd" d="M201.261 110.616L198.561 106.488H190.462V124.376H206.661V110.616H201.261ZM204.529 112.745H200.108L197.408 108.617H192.594V122.247H204.529V112.745Z" fill="white"/>
<path d="M351.634 142.134C351.634 138.371 354.688 135.32 358.454 135.32H378.063C381.83 135.32 384.884 138.371 384.884 142.134V161.727C384.884 165.49 381.83 168.541 378.063 168.541H358.454C354.688 168.541 351.634 165.49 351.634 161.727V142.134Z" fill="#FFB732"/>
<path d="M360.161 151.071C361.541 150.814 362.23 150.105 362.23 148.943C362.23 148.43 362.163 147.551 362.027 146.308C361.892 144.984 361.825 144.025 361.825 143.431C361.825 142.458 362.095 141.715 362.636 141.201C363.19 140.688 363.927 140.431 364.847 140.431H366.023V142.032H365.192C364.664 142.032 364.272 142.154 364.015 142.397C363.758 142.627 363.63 143.012 363.63 143.552C363.63 143.944 363.657 144.43 363.711 145.011C363.765 145.579 363.799 145.964 363.812 146.167C363.948 147.464 364.015 148.409 364.015 149.004C364.015 149.72 363.833 150.321 363.468 150.808C363.116 151.28 362.568 151.598 361.825 151.76V151.801C362.568 151.963 363.116 152.287 363.468 152.773C363.833 153.26 364.015 153.861 364.015 154.577C364.015 155.172 363.948 156.117 363.812 157.415C363.799 157.617 363.765 158.009 363.711 158.59C363.657 159.157 363.63 159.637 363.63 160.029C363.63 160.569 363.758 160.954 364.015 161.184C364.272 161.427 364.664 161.549 365.192 161.549H366.023V163.15H364.847C363.927 163.15 363.19 162.893 362.636 162.38C362.095 161.866 361.825 161.123 361.825 160.151C361.825 159.556 361.892 158.597 362.027 157.273C362.163 156.03 362.23 155.151 362.23 154.638C362.23 153.476 361.541 152.767 360.161 152.51V151.071Z" fill="#1C1E53"/>
<path d="M376.606 152.51C375.227 152.767 374.537 153.476 374.537 154.638C374.537 155.151 374.605 156.03 374.74 157.273C374.875 158.597 374.943 159.556 374.943 160.151C374.943 161.123 374.665 161.866 374.111 162.38C373.57 162.893 372.84 163.15 371.92 163.15H370.744V161.549H371.576C372.103 161.549 372.495 161.427 372.752 161.184C373.009 160.954 373.137 160.569 373.137 160.029C373.137 159.637 373.11 159.157 373.056 158.59C373.002 158.009 372.968 157.617 372.955 157.415C372.82 156.117 372.752 155.172 372.752 154.577C372.752 153.861 372.928 153.26 373.279 152.773C373.645 152.287 374.199 151.963 374.943 151.801V151.76C374.199 151.598 373.645 151.28 373.279 150.808C372.928 150.321 372.752 149.72 372.752 149.004C372.752 148.409 372.82 147.464 372.955 146.167C372.968 145.964 373.002 145.579 373.056 145.011C373.11 144.43 373.137 143.944 373.137 143.552C373.137 143.012 373.009 142.627 372.752 142.397C372.495 142.154 372.103 142.032 371.576 142.032H370.744V140.431H371.92C372.84 140.431 373.57 140.688 374.111 141.201C374.665 141.715 374.943 142.458 374.943 143.431C374.943 144.025 374.875 144.984 374.74 146.308C374.605 147.551 374.537 148.43 374.537 148.943C374.537 150.105 375.227 150.814 376.606 151.071V152.51Z" fill="#1C1E53"/>
<path d="M11.781 34.0574C11.781 23.7751 20.1213 15.4396 30.4095 15.4396H449.323C459.611 15.4396 467.952 23.7751 467.952 34.0574V34.0574C467.952 44.3398 459.611 52.6753 449.323 52.6753H30.4095C20.1213 52.6753 11.781 44.3398 11.781 34.0574V34.0574Z" fill="white" fill-opacity="0.6"/>
<path d="M45.0819 34.2615C45.0819 37.7009 42.2915 40.489 38.8492 40.489C35.407 40.489 32.6165 37.7009 32.6165 34.2615C32.6165 30.8222 35.407 28.0341 38.8492 28.0341C42.2915 28.0341 45.0819 30.8222 45.0819 34.2615Z" fill="#FBC918"/>
<path d="M66.8971 34.2615C66.8971 37.7009 64.1066 40.489 60.6644 40.489C57.2222 40.489 54.4317 37.7009 54.4317 34.2615C54.4317 30.8222 57.2222 28.0341 60.6644 28.0341C64.1066 28.0341 66.8971 30.8222 66.8971 34.2615Z" fill="#1FD948"/>
<path d="M88.7152 34.2615C88.7152 37.7009 85.9247 40.489 82.4825 40.489C79.0402 40.489 76.2498 37.7009 76.2498 34.2615C76.2498 30.8222 79.0402 28.0341 82.4825 28.0341C85.9247 28.0341 88.7152 30.8222 88.7152 34.2615Z" fill="#FF0000"/>
<path fill-rule="evenodd" clip-rule="evenodd" d="M115.144 155.3C115.144 154.673 115.653 154.165 116.28 154.165H251.694V180.9C251.694 181.527 251.185 182.036 250.558 182.036C249.931 182.036 249.422 181.527 249.422 180.9V156.436H116.28C115.653 156.436 115.144 155.927 115.144 155.3Z" fill="url(#paint2_linear_483_798)"/>
<path fill-rule="evenodd" clip-rule="evenodd" d="M393.663 258.833C393.663 259.46 393.154 259.969 392.527 259.969L249.844 259.969L249.844 234.247C249.844 233.62 250.352 233.112 250.98 233.112C251.607 233.112 252.115 233.62 252.115 234.247L252.115 257.698L392.527 257.698C393.154 257.698 393.663 258.206 393.663 258.833Z" fill="url(#paint3_linear_483_798)"/>
<g filter="url(#filter0_d_483_798)">
<path fill-rule="evenodd" clip-rule="evenodd" d="M248.627 202.254C248.622 202.473 248.661 202.578 248.862 202.579H253.702C254.578 202.644 255.363 202.862 256.026 203.288C256.486 203.584 256.822 203.935 257.076 204.324C257.526 205.015 257.78 206.011 257.917 206.815C257.977 207.163 258.005 207.488 257.941 207.639C257.911 207.71 257.867 207.758 257.806 207.78C257.473 207.907 257.122 207.473 256.934 207.266C256.042 206.278 254.744 205.869 253.215 205.792H248.79C248.632 205.818 248.575 205.929 248.591 206.1V207.279C248.582 207.671 248.373 207.804 247.959 207.672L244.149 204.842L243.774 204.564L243.679 204.493C243.372 204.232 243.498 203.995 243.773 203.79L244.064 203.573L247.715 200.854C248.16 200.522 248.627 200.433 248.627 201.148V202.254ZM252.867 214.287C252.872 214.068 252.834 213.963 252.632 213.963H247.792C246.916 213.898 246.132 213.679 245.469 213.253C245.005 212.956 244.668 212.602 244.414 212.21C243.955 211.501 243.655 210.346 243.545 209.517C243.51 209.253 243.503 209.022 243.553 208.903C243.583 208.832 243.628 208.784 243.688 208.761C244.021 208.635 244.373 209.068 244.56 209.276C245.453 210.264 246.75 210.673 248.28 210.749H252.705C252.863 210.723 252.919 210.612 252.903 210.442V209.262C252.913 208.87 253.121 208.737 253.535 208.869L257.345 211.699L257.72 211.977L257.816 212.048C258.122 212.309 257.996 212.546 257.721 212.751L257.43 212.968L253.78 215.688C253.334 216.02 252.867 216.109 252.867 215.393L252.867 214.287Z" fill="#085BD8"/>
</g>
<path d="M269.88 207.773C269.88 218.415 261.248 227.044 250.598 227.044C239.949 227.044 231.316 218.415 231.316 207.773C231.316 197.131 239.949 188.502 250.598 188.502C261.248 188.502 269.88 197.131 269.88 207.773Z" stroke="white" stroke-width="2"/>
<path d="M171.712 155.3C171.712 160.316 167.644 164.382 162.625 164.382C157.607 164.382 153.538 160.316 153.538 155.3C153.538 150.284 157.607 146.218 162.625 146.218C167.644 146.218 171.712 150.284 171.712 155.3Z" fill="#383A68"/>
<path fill-rule="evenodd" clip-rule="evenodd" d="M162.625 162.565C166.64 162.565 169.895 159.313 169.895 155.3C169.895 151.287 166.64 148.034 162.625 148.034C158.61 148.034 155.356 151.287 155.356 155.3C155.356 159.313 158.61 162.565 162.625 162.565ZM162.625 164.382C167.644 164.382 171.712 160.316 171.712 155.3C171.712 150.284 167.644 146.218 162.625 146.218C157.607 146.218 153.538 150.284 153.538 155.3C153.538 160.316 157.607 164.382 162.625 164.382Z" fill="#63648A"/>
<path d="M369.808 258.834C369.808 263.85 365.74 267.916 360.721 267.916C355.702 267.916 351.634 263.85 351.634 258.834C351.634 253.818 355.702 249.752 360.721 249.752C365.74 249.752 369.808 253.818 369.808 258.834Z" fill="#383A68"/>
<path fill-rule="evenodd" clip-rule="evenodd" d="M360.721 266.1C364.736 266.1 367.991 262.847 367.991 258.834C367.991 254.822 364.736 251.569 360.721 251.569C356.706 251.569 353.451 254.822 353.451 258.834C353.451 262.847 356.706 266.1 360.721 266.1ZM360.721 267.916C365.74 267.916 369.808 263.85 369.808 258.834C369.808 253.818 365.74 249.752 360.721 249.752C355.702 249.752 351.634 253.818 351.634 258.834C351.634 263.85 355.702 267.916 360.721 267.916Z" fill="#63648A"/>
<defs>
<filter id="filter0_d_483_798" x="229.5" y="190.604" width="42.4938" height="43.3328" filterUnits="userSpaceOnUse" color-interpolation-filters="sRGB">
<feFlood flood-opacity="0" result="BackgroundImageFix"/>
<feColorMatrix in="SourceAlpha" type="matrix" values="0 0 0 0 0 0 0 0 0 0 0 0 0 0 0 0 0 0 127 0" result="hardAlpha"/>
<feOffset dy="4"/>
<feGaussianBlur stdDeviation="7"/>
<feComposite in2="hardAlpha" operator="out"/>
<feColorMatrix type="matrix" values="0 0 0 0 0.0313726 0 0 0 0 0.356863 0 0 0 0 0.847059 0 0 0 1 0"/>
<feBlend mode="normal" in2="BackgroundImageFix" result="effect1_dropShadow_483_798"/>
<feBlend mode="normal" in="SourceGraphic" in2="effect1_dropShadow_483_798" result="shape"/>
</filter>
<linearGradient id="paint0_linear_483_798" x1="243.5" y1="1.35835e-05" x2="587.034" y2="247.974" gradientUnits="userSpaceOnUse">
<stop stop-color="white" stop-opacity="0.17"/>
<stop offset="1" stop-opacity="0"/>
</linearGradient>
<linearGradient id="paint1_linear_483_798" x1="243.753" y1="0" x2="368.718" y2="531.956" gradientUnits="userSpaceOnUse">
<stop stop-color="#3E6EEA" stop-opacity="0.37"/>
<stop offset="1" stop-color="#002175" stop-opacity="0.47"/>
</linearGradient>
<linearGradient id="paint2_linear_483_798" x1="239.273" y1="149.03" x2="57.0405" y2="204.061" gradientUnits="userSpaceOnUse">
<stop stop-color="#767799"/>
<stop offset="1" stop-color="#767799" stop-opacity="0"/>
</linearGradient>
<linearGradient id="paint3_linear_483_798" x1="262.975" y1="265.104" x2="453.185" y2="204.6" gradientUnits="userSpaceOnUse">
<stop stop-color="#767799"/>
<stop offset="1" stop-color="#767799" stop-opacity="0"/>
</linearGradient>
</defs>
</svg>
