<svg width="647" height="366" viewBox="0 0 647 366" fill="none" xmlns="http://www.w3.org/2000/svg">
<path d="M81.1282 17.2556C81.1282 7.72558 88.8582 0 98.3936 0H549.112C558.648 0 566.378 7.72559 566.378 17.2556V348.744C566.378 358.274 558.648 366 549.112 366H98.3936C88.8582 366 81.1282 358.274 81.1282 348.744V17.2556Z" fill="url(#paint0_linear_54_1302)"/>
<path fill-rule="evenodd" clip-rule="evenodd" d="M548.859 1.81638H98.1407C89.609 1.81638 82.6927 8.72874 82.6927 17.2556V348.744C82.6927 357.271 89.609 364.184 98.1407 364.184H548.859C557.391 364.184 564.307 357.271 564.307 348.744V17.2556C564.307 8.72875 557.391 1.81638 548.859 1.81638ZM98.1407 0C88.6053 0 80.8753 7.72558 80.8753 17.2556V348.744C80.8753 358.274 88.6053 366 98.1407 366H548.859C558.395 366 566.125 358.274 566.125 348.744V17.2556C566.125 7.72559 558.395 0 548.859 0H98.1407Z" fill="url(#paint1_linear_54_1302)"/>
<path d="M369.844 285.629C369.844 281.865 372.897 278.814 376.664 278.814H396.273C400.04 278.814 403.093 281.865 403.093 285.629V305.221C403.093 308.984 400.04 312.035 396.273 312.035H376.664C372.897 312.035 369.844 308.984 369.844 305.221V285.629Z" fill="#1FD948"/>
<path d="M381.571 301.814L375.811 295.411L381.571 289.036H384.32L378.536 295.411L384.32 301.814H381.571Z" fill="white"/>
<path d="M388.591 289.036H391.34L397.125 295.411L391.34 301.814H388.591L394.376 295.411L388.591 289.036Z" fill="white"/>
<path d="M261.707 104.899C261.707 101.136 264.761 98.0845 268.527 98.0845H288.136C291.903 98.0845 294.957 101.136 294.957 104.899V124.491C294.957 128.255 291.903 131.306 288.136 131.306H268.527C264.761 131.306 261.707 128.255 261.707 124.491V104.899Z" fill="#1ABCFE"/>
<path fill-rule="evenodd" clip-rule="evenodd" d="M281.261 110.616L278.561 106.488H270.462V124.376H286.661V110.616H281.261ZM284.529 112.745H280.108L277.408 108.617H272.594V122.247H284.529V112.745Z" fill="white"/>
<path d="M431.634 142.134C431.634 138.371 434.688 135.32 438.454 135.32H458.063C461.83 135.32 464.884 138.371 464.884 142.134V161.727C464.884 165.49 461.83 168.541 458.063 168.541H438.454C434.688 168.541 431.634 165.49 431.634 161.727V142.134Z" fill="#FFB732"/>
<path d="M440.161 151.071C441.541 150.814 442.23 150.105 442.23 148.943C442.23 148.43 442.163 147.551 442.027 146.308C441.892 144.984 441.825 144.025 441.825 143.431C441.825 142.458 442.095 141.715 442.636 141.201C443.19 140.688 443.927 140.431 444.847 140.431H446.023V142.032H445.192C444.664 142.032 444.272 142.154 444.015 142.397C443.758 142.627 443.63 143.012 443.63 143.552C443.63 143.944 443.657 144.43 443.711 145.011C443.765 145.579 443.799 145.964 443.812 146.167C443.948 147.464 444.015 148.409 444.015 149.004C444.015 149.72 443.833 150.321 443.468 150.808C443.116 151.28 442.568 151.598 441.825 151.76V151.801C442.568 151.963 443.116 152.287 443.468 152.773C443.833 153.26 444.015 153.861 444.015 154.577C444.015 155.172 443.948 156.117 443.812 157.415C443.799 157.617 443.765 158.009 443.711 158.59C443.657 159.157 443.63 159.637 443.63 160.029C443.63 160.569 443.758 160.954 444.015 161.184C444.272 161.427 444.664 161.549 445.192 161.549H446.023V163.15H444.847C443.927 163.15 443.19 162.893 442.636 162.38C442.095 161.866 441.825 161.123 441.825 160.151C441.825 159.556 441.892 158.597 442.027 157.273C442.163 156.03 442.23 155.151 442.23 154.638C442.23 153.476 441.541 152.767 440.161 152.51V151.071Z" fill="#1C1E53"/>
<path d="M456.606 152.51C455.227 152.767 454.537 153.476 454.537 154.638C454.537 155.151 454.605 156.03 454.74 157.273C454.875 158.597 454.943 159.556 454.943 160.151C454.943 161.123 454.665 161.866 454.111 162.38C453.57 162.893 452.84 163.15 451.92 163.15H450.744V161.549H451.576C452.103 161.549 452.495 161.427 452.752 161.184C453.009 160.954 453.137 160.569 453.137 160.029C453.137 159.637 453.11 159.157 453.056 158.59C453.002 158.009 452.968 157.617 452.955 157.415C452.82 156.117 452.752 155.172 452.752 154.577C452.752 153.861 452.928 153.26 453.279 152.773C453.645 152.287 454.199 151.963 454.943 151.801V151.76C454.199 151.598 453.645 151.28 453.279 150.808C452.928 150.321 452.752 149.72 452.752 149.004C452.752 148.409 452.82 147.464 452.955 146.167C452.968 145.964 453.002 145.579 453.056 145.011C453.11 144.43 453.137 143.944 453.137 143.552C453.137 143.012 453.009 142.627 452.752 142.397C452.495 142.154 452.103 142.032 451.576 142.032H450.744V140.431H451.92C452.84 140.431 453.57 140.688 454.111 141.201C454.665 141.715 454.943 142.458 454.943 143.431C454.943 144.025 454.875 144.984 454.74 146.308C454.605 147.551 454.537 148.43 454.537 148.943C454.537 150.105 455.227 150.814 456.606 151.071V152.51Z" fill="#1C1E53"/>
<path d="M0 102.625C0 96.6064 4.8821 91.7271 10.9045 91.7271H185.376C191.398 91.7271 196.281 96.6064 196.281 102.625V215.241C196.281 221.26 191.398 226.139 185.376 226.139H10.9045C4.88211 226.139 0 221.26 0 215.241V102.625Z" fill="url(#paint2_linear_54_1302)"/>
<path fill-rule="evenodd" clip-rule="evenodd" d="M185.376 93.5434H10.9045C5.88583 93.5434 1.81741 97.6095 1.81741 102.625V215.241C1.81741 220.256 5.88583 224.323 10.9045 224.323H185.376C190.395 224.323 194.463 220.256 194.463 215.241V102.625C194.463 97.6095 190.395 93.5434 185.376 93.5434ZM10.9045 91.7271C4.8821 91.7271 0 96.6064 0 102.625V215.241C0 221.26 4.88211 226.139 10.9045 226.139H185.376C191.398 226.139 196.281 221.26 196.281 215.241V102.625C196.281 96.6064 191.398 91.7271 185.376 91.7271H10.9045Z" fill="url(#paint3_linear_54_1302)"/>
<path d="M21.8094 127.147C21.8094 124.137 24.2504 121.697 27.2616 121.697H78.1492C81.1604 121.697 83.6014 124.137 83.6014 127.147V185.271C83.6014 188.28 81.1604 190.72 78.1492 190.72H27.2616C24.2504 190.72 21.8094 188.28 21.8094 185.271V127.147Z" fill="white" fill-opacity="0.17"/>
<path d="M95.413 126.692C95.413 123.934 97.6507 121.697 100.411 121.697H164.929C167.689 121.697 169.927 123.934 169.927 126.692C169.927 129.451 167.689 131.687 164.929 131.687H100.411C97.6507 131.687 95.413 129.451 95.413 126.692Z" fill="white" fill-opacity="0.6"/>
<path d="M95.413 145.764C95.413 143.006 97.6507 140.769 100.411 140.769H164.929C167.689 140.769 169.927 143.006 169.927 145.764C169.927 148.523 167.689 150.759 164.929 150.759H100.411C97.6507 150.759 95.413 148.523 95.413 145.764Z" fill="white" fill-opacity="0.26"/>
<path d="M95.413 177.55C95.413 168.271 102.94 160.749 112.224 160.749H113.133C122.417 160.749 129.944 168.271 129.944 177.55C129.944 186.83 122.417 194.352 113.133 194.352H112.224C102.94 194.352 95.413 186.83 95.413 177.55Z" fill="#4F6092"/>
<path d="M91.781 34.0574C91.781 23.7751 100.121 15.4396 110.409 15.4396H529.323C539.611 15.4396 547.952 23.7751 547.952 34.0574C547.952 44.3398 539.611 52.6753 529.323 52.6753H110.409C100.121 52.6753 91.781 44.3398 91.781 34.0574Z" fill="white" fill-opacity="0.6"/>
<path d="M472.528 202.526C472.528 196.507 477.41 191.628 483.433 191.628H636.096C642.118 191.628 647 196.507 647 202.526V315.142C647 321.16 642.118 326.04 636.096 326.04H483.433C477.41 326.04 472.528 321.16 472.528 315.142V202.526Z" fill="url(#paint4_linear_54_1302)"/>
<path fill-rule="evenodd" clip-rule="evenodd" d="M636.096 193.444H483.433C478.414 193.444 474.346 197.51 474.346 202.526V315.142C474.346 320.157 478.414 324.223 483.433 324.223H636.096C641.114 324.223 645.183 320.157 645.183 315.142V202.526C645.183 197.51 641.114 193.444 636.096 193.444ZM483.433 191.628C477.41 191.628 472.528 196.507 472.528 202.526V315.142C472.528 321.16 477.41 326.04 483.433 326.04H636.096C642.118 326.04 647 321.16 647 315.142V202.526C647 196.507 642.118 191.628 636.096 191.628H483.433Z" fill="url(#paint5_linear_54_1302)"/>
<path d="M488.682 213.424C488.682 211.418 490.309 209.791 492.317 209.791H627.209C629.217 209.791 630.844 211.418 630.844 213.424C630.844 215.43 629.217 217.057 627.209 217.057H492.317C490.309 217.057 488.682 215.43 488.682 213.424Z" fill="url(#paint6_linear_54_1302)"/>
<path d="M488.682 231.588C488.682 229.582 490.309 227.955 492.317 227.955H535.935C537.942 227.955 539.57 229.582 539.57 231.588C539.57 233.594 537.942 235.221 535.935 235.221H492.317C490.309 235.221 488.682 233.594 488.682 231.588Z" fill="url(#paint7_linear_54_1302)"/>
<path d="M546.031 231.588C546.031 229.582 547.658 227.955 549.666 227.955H566.628C568.636 227.955 570.263 229.582 570.263 231.588C570.263 233.594 568.636 235.221 566.628 235.221H549.666C547.658 235.221 546.031 233.594 546.031 231.588Z" fill="url(#paint8_linear_54_1302)"/>
<path d="M488.682 304.244C488.682 302.237 490.309 300.611 492.317 300.611H535.935C537.942 300.611 539.57 302.237 539.57 304.244C539.57 306.25 537.942 307.876 535.935 307.876H492.317C490.309 307.876 488.682 306.25 488.682 304.244Z" fill="url(#paint9_linear_54_1302)"/>
<path d="M546.031 304.244C546.031 302.237 547.658 300.611 549.666 300.611H566.628C568.636 300.611 570.263 302.237 570.263 304.244C570.263 306.25 568.636 307.876 566.628 307.876H549.666C547.658 307.876 546.031 306.25 546.031 304.244Z" fill="url(#paint10_linear_54_1302)"/>
<path d="M517.761 267.916C517.761 265.91 519.389 264.283 521.396 264.283H533.512C535.52 264.283 537.147 265.91 537.147 267.916C537.147 269.922 535.52 271.549 533.512 271.549H521.396C519.389 271.549 517.761 269.922 517.761 267.916Z" fill="url(#paint11_linear_54_1302)"/>
<path d="M544.417 267.916C544.417 265.91 546.044 264.283 548.052 264.283H599.747C601.755 264.283 603.382 265.91 603.382 267.916C603.382 269.922 601.755 271.549 599.747 271.549H548.052C546.044 271.549 544.417 269.922 544.417 267.916Z" fill="url(#paint12_linear_54_1302)"/>
<path d="M488.682 267.916C488.682 265.91 490.309 264.283 492.317 264.283H509.279C511.287 264.283 512.914 265.91 512.914 267.916C512.914 269.922 511.287 271.549 509.279 271.549H492.317C490.309 271.549 488.682 269.922 488.682 267.916Z" fill="url(#paint13_linear_54_1302)"/>
<path d="M488.682 249.752C488.682 247.745 490.309 246.119 492.317 246.119H551.282C553.289 246.119 554.917 247.745 554.917 249.752C554.917 251.758 553.289 253.384 551.282 253.384H492.317C490.309 253.384 488.682 251.758 488.682 249.752Z" fill="url(#paint14_linear_54_1302)"/>
<path d="M560.572 249.752C560.572 247.745 562.199 246.119 564.206 246.119H591.67C593.677 246.119 595.304 247.745 595.304 249.752C595.304 251.758 593.677 253.384 591.67 253.384H564.206C562.199 253.384 560.572 251.758 560.572 249.752Z" fill="url(#paint15_linear_54_1302)"/>
<path d="M488.682 286.079C488.682 284.073 490.309 282.447 492.317 282.447H551.282C553.289 282.447 554.917 284.073 554.917 286.079C554.917 288.086 553.289 289.712 551.282 289.712H492.317C490.309 289.712 488.682 288.086 488.682 286.079Z" fill="url(#paint16_linear_54_1302)"/>
<path d="M125.082 34.2615C125.082 37.7009 122.291 40.489 118.849 40.489C115.407 40.489 112.617 37.7009 112.617 34.2615C112.617 30.8222 115.407 28.0341 118.849 28.0341C122.291 28.0341 125.082 30.8222 125.082 34.2615Z" fill="#FBC918"/>
<path d="M146.897 34.2615C146.897 37.7009 144.107 40.489 140.664 40.489C137.222 40.489 134.432 37.7009 134.432 34.2615C134.432 30.8222 137.222 28.0341 140.664 28.0341C144.107 28.0341 146.897 30.8222 146.897 34.2615Z" fill="#1FD948"/>
<path d="M168.715 34.2615C168.715 37.7009 165.925 40.489 162.482 40.489C159.04 40.489 156.25 37.7009 156.25 34.2615C156.25 30.8222 159.04 28.0341 162.482 28.0341C165.925 28.0341 168.715 30.8222 168.715 34.2615Z" fill="#FF0000"/>
<path d="M48.8253 154.976C47.1355 152.773 43.7706 152.919 42.2784 155.261L30.166 174.264C28.4688 176.927 30.3814 180.414 33.5391 180.414H72.0187C75.2852 180.414 77.1745 176.71 75.2571 174.066L68.3688 164.566C66.8877 162.523 63.9084 162.345 62.1947 164.197L61.9742 164.435C60.2903 166.255 57.3736 166.12 55.8646 164.153L48.8253 154.976Z" fill="white"/>
<path d="M72.4874 141.921C72.4874 145.181 69.843 147.824 66.5808 147.824C63.3187 147.824 60.6743 145.181 60.6743 141.921C60.6743 138.661 63.3187 136.018 66.5808 136.018C69.843 136.018 72.4874 138.661 72.4874 141.921Z" fill="#C4C5DC"/>
<path fill-rule="evenodd" clip-rule="evenodd" d="M195.144 155.3C195.144 154.673 195.653 154.165 196.28 154.165H331.694V180.9C331.694 181.527 331.185 182.036 330.558 182.036C329.931 182.036 329.422 181.527 329.422 180.9V156.436H196.28C195.653 156.436 195.144 155.927 195.144 155.3Z" fill="url(#paint17_linear_54_1302)"/>
<path fill-rule="evenodd" clip-rule="evenodd" d="M473.663 258.833C473.663 259.46 473.154 259.969 472.527 259.969L329.844 259.969L329.844 234.247C329.844 233.62 330.352 233.112 330.98 233.112C331.607 233.112 332.115 233.62 332.115 234.247L332.115 257.698L472.527 257.698C473.154 257.698 473.663 258.206 473.663 258.833Z" fill="url(#paint18_linear_54_1302)"/>
<g filter="url(#filter0_d_54_1302)">
<path fill-rule="evenodd" clip-rule="evenodd" d="M328.627 202.254C328.622 202.473 328.661 202.578 328.862 202.579H333.702C334.578 202.644 335.363 202.862 336.026 203.288C336.486 203.584 336.822 203.935 337.076 204.324C337.526 205.015 337.78 206.011 337.917 206.815C337.977 207.163 338.005 207.488 337.941 207.639C337.911 207.71 337.867 207.758 337.806 207.78C337.473 207.907 337.122 207.473 336.934 207.266C336.042 206.278 334.744 205.869 333.215 205.792H328.79C328.632 205.818 328.575 205.929 328.591 206.1V207.279C328.582 207.671 328.373 207.804 327.959 207.672L324.149 204.842L323.774 204.564L323.679 204.493C323.372 204.232 323.498 203.995 323.773 203.79L324.064 203.573L327.715 200.854C328.16 200.522 328.627 200.433 328.627 201.148V202.254ZM332.867 214.287C332.872 214.068 332.834 213.963 332.632 213.963H327.792C326.916 213.898 326.132 213.679 325.469 213.253C325.005 212.956 324.668 212.602 324.414 212.21C323.955 211.501 323.655 210.346 323.545 209.517C323.51 209.253 323.503 209.022 323.553 208.903C323.583 208.832 323.628 208.784 323.688 208.761C324.021 208.635 324.373 209.068 324.56 209.276C325.453 210.264 326.75 210.673 328.28 210.749H332.705C332.863 210.723 332.919 210.612 332.903 210.442V209.262C332.913 208.87 333.121 208.737 333.535 208.869L337.345 211.699L337.72 211.977L337.816 212.048C338.122 212.309 337.996 212.546 337.721 212.751L337.43 212.968L333.78 215.688C333.334 216.02 332.867 216.109 332.867 215.393L332.867 214.287Z" fill="#085BD8"/>
</g>
<path d="M349.88 207.773C349.88 218.415 341.248 227.044 330.598 227.044C319.949 227.044 311.316 218.415 311.316 207.773C311.316 197.131 319.949 188.502 330.598 188.502C341.248 188.502 349.88 197.131 349.88 207.773Z" stroke="white" stroke-width="2"/>
<path d="M251.712 155.3C251.712 160.316 247.644 164.382 242.625 164.382C237.607 164.382 233.538 160.316 233.538 155.3C233.538 150.284 237.607 146.218 242.625 146.218C247.644 146.218 251.712 150.284 251.712 155.3Z" fill="#383A68"/>
<path fill-rule="evenodd" clip-rule="evenodd" d="M242.625 162.565C246.64 162.565 249.895 159.313 249.895 155.3C249.895 151.287 246.64 148.034 242.625 148.034C238.61 148.034 235.356 151.287 235.356 155.3C235.356 159.313 238.61 162.565 242.625 162.565ZM242.625 164.382C247.644 164.382 251.712 160.316 251.712 155.3C251.712 150.284 247.644 146.218 242.625 146.218C237.607 146.218 233.538 150.284 233.538 155.3C233.538 160.316 237.607 164.382 242.625 164.382Z" fill="#63648A"/>
<path d="M449.808 258.834C449.808 263.85 445.74 267.916 440.721 267.916C435.702 267.916 431.634 263.85 431.634 258.834C431.634 253.818 435.702 249.752 440.721 249.752C445.74 249.752 449.808 253.818 449.808 258.834Z" fill="#383A68"/>
<path fill-rule="evenodd" clip-rule="evenodd" d="M440.721 266.1C444.736 266.1 447.991 262.847 447.991 258.834C447.991 254.822 444.736 251.569 440.721 251.569C436.706 251.569 433.451 254.822 433.451 258.834C433.451 262.847 436.706 266.1 440.721 266.1ZM440.721 267.916C445.74 267.916 449.808 263.85 449.808 258.834C449.808 253.818 445.74 249.752 440.721 249.752C435.702 249.752 431.634 253.818 431.634 258.834C431.634 263.85 435.702 267.916 440.721 267.916Z" fill="#63648A"/>
<path d="M136.305 167.564C136.305 163.8 139.359 160.749 143.126 160.749H162.734C166.501 160.749 169.555 163.8 169.555 167.564V187.156C169.555 190.919 166.501 193.971 162.734 193.971H143.126C139.359 193.971 136.305 190.919 136.305 187.156V167.564Z" fill="#4F6092"/>
<path fill-rule="evenodd" clip-rule="evenodd" d="M156.239 186.888H150.095V184.332H156.239V186.888Z" fill="white"/>
<path fill-rule="evenodd" clip-rule="evenodd" d="M144.405 169.693H161.456V173.805H158.898V172.249H146.963V173.805H144.405V169.693Z" fill="white"/>
<path fill-rule="evenodd" clip-rule="evenodd" d="M151.811 185.753L151.969 171.115L154.526 171.142L154.368 185.781L151.811 185.753Z" fill="white"/>
<defs>
<filter id="filter0_d_54_1302" x="309.5" y="190.604" width="42.4938" height="43.3328" filterUnits="userSpaceOnUse" color-interpolation-filters="sRGB">
<feFlood flood-opacity="0" result="BackgroundImageFix"/>
<feColorMatrix in="SourceAlpha" type="matrix" values="0 0 0 0 0 0 0 0 0 0 0 0 0 0 0 0 0 0 127 0" result="hardAlpha"/>
<feOffset dy="4"/>
<feGaussianBlur stdDeviation="7"/>
<feComposite in2="hardAlpha" operator="out"/>
<feColorMatrix type="matrix" values="0 0 0 0 0.0313726 0 0 0 0 0.356863 0 0 0 0 0.847059 0 0 0 1 0"/>
<feBlend mode="normal" in2="BackgroundImageFix" result="effect1_dropShadow_54_1302"/>
<feBlend mode="normal" in="SourceGraphic" in2="effect1_dropShadow_54_1302" result="shape"/>
</filter>
<linearGradient id="paint0_linear_54_1302" x1="323.753" y1="0" x2="448.718" y2="531.956" gradientUnits="userSpaceOnUse">
<stop stop-color="#3E6EEA" stop-opacity="0.37"/>
<stop offset="1" stop-color="#002175" stop-opacity="0.47"/>
</linearGradient>
<linearGradient id="paint1_linear_54_1302" x1="323.5" y1="1.35835e-05" x2="667.034" y2="247.974" gradientUnits="userSpaceOnUse">
<stop stop-color="white" stop-opacity="0.17"/>
<stop offset="1" stop-opacity="0"/>
</linearGradient>
<linearGradient id="paint2_linear_54_1302" x1="42.4166" y1="127.819" x2="282.698" y2="440.841" gradientUnits="userSpaceOnUse">
<stop stop-color="#253D7A"/>
<stop offset="1" stop-color="#5A5B8B"/>
</linearGradient>
<linearGradient id="paint3_linear_54_1302" x1="98.1403" y1="91.7271" x2="181.608" y2="433.638" gradientUnits="userSpaceOnUse">
<stop stop-color="white" stop-opacity="0.17"/>
<stop offset="1" stop-opacity="0"/>
</linearGradient>
<linearGradient id="paint4_linear_54_1302" x1="808.904" y1="543.007" x2="331.136" y2="109.014" gradientUnits="userSpaceOnUse">
<stop stop-color="#40416E"/>
<stop offset="1" stop-color="#253D7A"/>
</linearGradient>
<linearGradient id="paint5_linear_54_1302" x1="559.764" y1="191.628" x2="652.283" y2="528.506" gradientUnits="userSpaceOnUse">
<stop stop-color="white" stop-opacity="0.17"/>
<stop offset="1" stop-opacity="0"/>
</linearGradient>
<linearGradient id="paint6_linear_54_1302" x1="559.763" y1="209.791" x2="568.692" y2="253.781" gradientUnits="userSpaceOnUse">
<stop stop-color="white" stop-opacity="0.56"/>
<stop offset="1" stop-color="#C4C4C4" stop-opacity="0"/>
</linearGradient>
<linearGradient id="paint7_linear_54_1302" x1="514.126" y1="227.955" x2="533.778" y2="262.614" gradientUnits="userSpaceOnUse">
<stop stop-color="#F9C746" stop-opacity="0.52"/>
<stop offset="1" stop-color="#C4C4C4" stop-opacity="0"/>
</linearGradient>
<linearGradient id="paint8_linear_54_1302" x1="558.147" y1="227.955" x2="580.703" y2="246.898" gradientUnits="userSpaceOnUse">
<stop stop-color="#84EBE5" stop-opacity="0.62"/>
<stop offset="1" stop-color="#C4C4C4" stop-opacity="0"/>
</linearGradient>
<linearGradient id="paint9_linear_54_1302" x1="514.126" y1="300.611" x2="533.778" y2="335.269" gradientUnits="userSpaceOnUse">
<stop stop-color="white" stop-opacity="0.56"/>
<stop offset="1" stop-color="#C4C4C4" stop-opacity="0"/>
</linearGradient>
<linearGradient id="paint10_linear_54_1302" x1="558.147" y1="300.611" x2="580.703" y2="319.553" gradientUnits="userSpaceOnUse">
<stop stop-color="#F47D9E"/>
<stop offset="1" stop-color="#C4C4C4" stop-opacity="0"/>
</linearGradient>
<linearGradient id="paint11_linear_54_1302" x1="527.454" y1="264.283" x2="548.656" y2="278.527" gradientUnits="userSpaceOnUse">
<stop stop-color="#F2C87D"/>
<stop offset="1" stop-color="#C4C4C4" stop-opacity="0"/>
</linearGradient>
<linearGradient id="paint12_linear_54_1302" x1="573.899" y1="264.283" x2="591.983" y2="301.236" gradientUnits="userSpaceOnUse">
<stop stop-color="white" stop-opacity="0.62"/>
<stop offset="1" stop-color="#C4C4C4" stop-opacity="0"/>
</linearGradient>
<linearGradient id="paint13_linear_54_1302" x1="495.144" y1="262.467" x2="532.338" y2="267.722" gradientUnits="userSpaceOnUse">
<stop stop-color="#F37D9D"/>
<stop offset="1" stop-color="#C4C4C4" stop-opacity="0"/>
</linearGradient>
<linearGradient id="paint14_linear_54_1302" x1="521.799" y1="246.119" x2="538.57" y2="284.615" gradientUnits="userSpaceOnUse">
<stop stop-color="white" stop-opacity="0.58"/>
<stop offset="1" stop-color="#C4C4C4" stop-opacity="0"/>
</linearGradient>
<linearGradient id="paint15_linear_54_1302" x1="577.938" y1="246.119" x2="600.451" y2="273.218" gradientUnits="userSpaceOnUse">
<stop stop-color="white" stop-opacity="0.45"/>
<stop offset="1" stop-color="#C4C4C4" stop-opacity="0"/>
</linearGradient>
<linearGradient id="paint16_linear_54_1302" x1="521.799" y1="282.447" x2="538.57" y2="320.942" gradientUnits="userSpaceOnUse">
<stop stop-color="#70D1E7"/>
<stop offset="1" stop-color="#C4C4C4" stop-opacity="0"/>
</linearGradient>
<linearGradient id="paint17_linear_54_1302" x1="319.273" y1="149.03" x2="137.041" y2="204.061" gradientUnits="userSpaceOnUse">
<stop stop-color="#767799"/>
<stop offset="1" stop-color="#767799" stop-opacity="0"/>
</linearGradient>
<linearGradient id="paint18_linear_54_1302" x1="342.975" y1="265.104" x2="533.185" y2="204.6" gradientUnits="userSpaceOnUse">
<stop stop-color="#767799"/>
<stop offset="1" stop-color="#767799" stop-opacity="0"/>
</linearGradient>
</defs>
</svg>
